<svg width="18" height="18" viewBox="0 0 18 18" fill="none" xmlns="http://www.w3.org/2000/svg">
<path d="M3.75002 7.50013C3.74967 7.32489 3.81071 7.15506 3.92252 7.02013C3.98548 6.94419 4.0628 6.88141 4.15006 6.8354C4.23732 6.78938 4.3328 6.76103 4.43104 6.75198C4.52927 6.74292 4.62832 6.75333 4.72253 6.78262C4.81673 6.8119 4.90423 6.85948 4.98002 6.92263L9.00002 10.2826L13.0275 7.04263C13.1042 6.98033 13.1925 6.93381 13.2873 6.90573C13.382 6.87766 13.4814 6.86859 13.5797 6.87904C13.6779 6.8895 13.7732 6.91927 13.8599 6.96665C13.9466 7.01403 14.0231 7.07808 14.085 7.15513C14.1533 7.23273 14.2048 7.3236 14.2363 7.42205C14.2678 7.5205 14.2786 7.62439 14.268 7.72721C14.2575 7.83003 14.2257 7.92956 14.1749 8.01954C14.124 8.10953 14.0551 8.18803 13.9725 8.25013L9.47252 11.8726C9.33832 11.9829 9.16998 12.0432 8.99626 12.0432C8.82255 12.0432 8.65421 11.9829 8.52001 11.8726L4.02002 8.12263C3.92925 8.04739 3.85751 7.95182 3.81059 7.84366C3.76368 7.7355 3.74293 7.61781 3.75002 7.50013Z" fill="#B2B4B5"/>
</svg>
