<svg width="16" height="16" viewBox="0 0 16 16" fill="none" xmlns="http://www.w3.org/2000/svg">
<path d="M12.75 14.0795C12.75 14.2778 12.5302 14.3971 12.3639 14.2892L8.40827 11.7223C8.15994 11.5611 7.84006 11.5611 7.59173 11.7223L3.63609 14.2892C3.46977 14.3971 3.25 14.2778 3.25 14.0795V2.41966C3.25 2.10996 3.37379 1.81261 3.59464 1.59314C3.81555 1.37361 4.11549 1.25 4.42857 1.25H11.5714C11.8845 1.25 12.1845 1.37361 12.4054 1.59314C12.6262 1.81261 12.75 2.10996 12.75 2.41966V14.0795Z" fill="#2F2F2F" stroke="#2F2F2F" stroke-width="0.5"/>
<path d="M10.8061 5.11277L9.00739 4.83903L8.20333 3.13205C8.18137 3.08531 8.14524 3.04748 8.10061 3.02448C7.98868 2.96662 7.85266 3.01484 7.7967 3.13205L6.99264 4.83903L5.19395 5.11277C5.14437 5.12019 5.09903 5.14467 5.06431 5.18176C5.02235 5.22693 4.99922 5.2877 5.00002 5.35071C5.00082 5.41372 5.02547 5.47383 5.06856 5.51782L6.36994 6.84646L6.06248 8.72258C6.05527 8.76622 6.05988 8.8111 6.07579 8.85214C6.0917 8.89318 6.11828 8.92873 6.1525 8.95476C6.18672 8.98078 6.22722 8.99625 6.26941 8.9994C6.3116 9.00255 6.35379 8.99326 6.39119 8.97258L8.00001 8.08682L9.60884 8.97258C9.65276 8.99706 9.70377 9.00522 9.75265 8.99632C9.87592 8.97406 9.9588 8.85166 9.93755 8.72258L9.63009 6.84646L10.9315 5.51782C10.9669 5.48147 10.9903 5.43399 10.9973 5.38206C11.0165 5.25224 10.93 5.13206 10.8061 5.11277Z" fill="white"/>
</svg>
