<svg width="122" height="133" viewBox="0 0 122 133" fill="none" xmlns="http://www.w3.org/2000/svg">
<g opacity="0.15">
<path opacity="0.15" d="M56.4995 104.673H52.6639C52.527 104.673 52.3958 104.619 52.299 104.522C52.2022 104.425 52.1479 104.294 52.1479 104.157V94.6671C52.1479 94.5302 52.2022 94.399 52.299 94.3022C52.3958 94.2055 52.527 94.1511 52.6639 94.1511H56.4995C56.6363 94.1511 56.7676 94.2055 56.8644 94.3022C56.9611 94.399 57.0155 94.5302 57.0155 94.6671V104.157C57.0155 104.294 56.9611 104.425 56.8644 104.522C56.7676 104.619 56.6363 104.673 56.4995 104.673ZM53.1799 103.641H55.9835V95.1831H53.1799V103.641Z" fill="#474747"/>
<path opacity="0.15" d="M54.0268 90.8537H51.3412C51.2043 90.8537 51.0731 90.7993 50.9763 90.7026C50.8796 90.6058 50.8252 90.4745 50.8252 90.3377V69.9901C50.8252 69.8532 50.8796 69.722 50.9763 69.6252C51.0731 69.5284 51.2043 69.4741 51.3412 69.4741H54.0268C54.1637 69.4741 54.2949 69.5284 54.3917 69.6252C54.4884 69.722 54.5428 69.8532 54.5428 69.9901V90.3377C54.5428 90.4745 54.4884 90.6058 54.3917 90.7026C54.2949 90.7993 54.1637 90.8537 54.0268 90.8537ZM51.8572 89.8217H53.5108V70.5061H51.8572V89.8217Z" fill="#474747"/>
<path opacity="0.15" d="M52.684 77.4712C52.4302 77.4712 52.1821 77.396 51.971 77.2549C51.76 77.1139 51.5955 76.9135 51.4984 76.679C51.4013 76.4445 51.3758 76.1865 51.4254 75.9376C51.4749 75.6886 51.5971 75.46 51.7766 75.2805C51.956 75.101 52.1847 74.9788 52.4336 74.9293C52.6826 74.8798 52.9406 74.9052 53.1751 75.0023C53.4096 75.0994 53.61 75.2639 53.751 75.475C53.892 75.686 53.9673 75.9341 53.9673 76.1879C53.9669 76.5282 53.8316 76.8544 53.591 77.095C53.3504 77.3355 53.0242 77.4709 52.684 77.4712ZM52.684 75.9366C52.6343 75.9366 52.5857 75.9514 52.5444 75.979C52.5031 76.0066 52.4709 76.0458 52.4518 76.0918C52.4328 76.1377 52.4278 76.1882 52.4375 76.2369C52.4472 76.2857 52.4712 76.3305 52.5063 76.3656C52.5414 76.4008 52.5862 76.4247 52.635 76.4344C52.6837 76.4441 52.7342 76.4391 52.7802 76.4201C52.8261 76.4011 52.8653 76.3689 52.8929 76.3275C52.9205 76.2862 52.9353 76.2376 52.9353 76.1879C52.9352 76.1213 52.9087 76.0574 52.8616 76.0103C52.8145 75.9632 52.7506 75.9367 52.684 75.9366Z" fill="#474747"/>
<path opacity="0.15" d="M52.684 83.0143C52.4302 83.0143 52.1821 82.939 51.971 82.798C51.76 82.657 51.5955 82.4566 51.4984 82.2221C51.4013 81.9876 51.3758 81.7296 51.4254 81.4806C51.4749 81.2317 51.5971 81.003 51.7766 80.8235C51.956 80.6441 52.1847 80.5219 52.4336 80.4723C52.6826 80.4228 52.9406 80.4482 53.1751 80.5454C53.4096 80.6425 53.61 80.807 53.751 81.018C53.892 81.2291 53.9673 81.4772 53.9673 81.731C53.9669 82.0712 53.8316 82.3974 53.591 82.638C53.3504 82.8786 53.0242 83.0139 52.684 83.0143ZM52.684 81.4797C52.6343 81.4797 52.5857 81.4944 52.5444 81.522C52.5031 81.5496 52.4709 81.5889 52.4518 81.6348C52.4328 81.6807 52.4278 81.7312 52.4375 81.78C52.4472 81.8287 52.4712 81.8735 52.5063 81.9087C52.5414 81.9438 52.5862 81.9677 52.635 81.9774C52.6837 81.9871 52.7342 81.9822 52.7802 81.9631C52.8261 81.9441 52.8653 81.9119 52.8929 81.8706C52.9205 81.8293 52.9353 81.7807 52.9353 81.731C52.9352 81.6643 52.9087 81.6004 52.8616 81.5533C52.8145 81.5062 52.7506 81.4797 52.684 81.4797Z" fill="#474747"/>
<path opacity="0.15" d="M114.932 105.297H1.068C0.93115 105.297 0.799903 105.242 0.703134 105.145C0.606366 105.049 0.552002 104.917 0.552002 104.781C0.552002 104.644 0.606366 104.512 0.703134 104.416C0.799903 104.319 0.93115 104.265 1.068 104.265H114.932C115.069 104.265 115.2 104.319 115.297 104.416C115.394 104.512 115.448 104.644 115.448 104.781C115.448 104.917 115.394 105.049 115.297 105.145C115.2 105.242 115.069 105.297 114.932 105.297Z" fill="#474747"/>
<path d="M97.9942 105.297C97.8574 105.297 97.7261 105.242 97.6294 105.145C97.5326 105.049 97.4782 104.917 97.4782 104.781V48.8289C97.4782 48.6921 97.5326 48.5608 97.6294 48.4641C97.7261 48.3673 97.8574 48.3129 97.9942 48.3129C98.1311 48.3129 98.2623 48.3673 98.3591 48.4641C98.4558 48.5608 98.5102 48.6921 98.5102 48.8289V104.781C98.5102 104.917 98.4558 105.049 98.3591 105.145C98.2623 105.242 98.1311 105.297 97.9942 105.297Z" fill="#474747"/>
<path d="M97.9942 74.218C93.2599 74.218 89.8922 72.2526 87.9838 68.3766C82.9951 58.2382 89.8029 37.6082 93.1017 33.3245C94.5073 31.4987 96.3363 30.4086 97.9942 30.4086C99.6521 30.4086 101.481 31.4987 102.887 33.3245C106.185 37.6083 112.993 58.2385 108.004 68.3766C106.096 72.2526 102.728 74.218 97.9942 74.218ZM97.9942 31.4406C96.6543 31.4406 95.1311 32.3802 93.9194 33.954C92.3858 35.9458 89.9254 42.0322 88.4627 48.7696C86.6911 56.9313 86.8495 63.7336 88.9099 67.9209C90.6299 71.4146 93.6855 73.186 97.9935 73.186C102.302 73.186 105.358 71.4144 107.077 67.9209C109.138 63.7329 109.297 56.9313 107.525 48.7696C106.062 42.0324 103.602 35.946 102.068 33.954C100.857 32.3802 99.3341 31.4406 97.9942 31.4406V31.4406Z" fill="#474747"/>
<path d="M97.9942 57.9504C97.8922 57.9504 97.7924 57.9201 97.7076 57.8634C97.6228 57.8067 97.5567 57.7262 97.5176 57.6319C97.4786 57.5376 97.4683 57.4339 97.4882 57.3338C97.5081 57.2337 97.5573 57.1418 97.6294 57.0696L101.964 52.7352C102.061 52.6412 102.191 52.5892 102.327 52.5904C102.462 52.5916 102.591 52.6458 102.687 52.7415C102.783 52.8372 102.837 52.9666 102.838 53.1019C102.839 53.2372 102.787 53.3675 102.693 53.4649L98.359 57.7992C98.3112 57.8472 98.2543 57.8853 98.1917 57.9112C98.1291 57.9372 98.062 57.9505 97.9942 57.9504Z" fill="#474747"/>
<path d="M97.9942 68.0486C97.9265 68.0487 97.8593 68.0353 97.7967 68.0094C97.7341 67.9834 97.6773 67.9454 97.6294 67.8974L91.7334 62.0014C91.6394 61.9041 91.5874 61.7737 91.5886 61.6384C91.5898 61.5031 91.644 61.3737 91.7397 61.278C91.8354 61.1824 91.9648 61.1281 92.1001 61.1269C92.2354 61.1257 92.3657 61.1778 92.463 61.2717L98.3591 67.1677C98.4312 67.2399 98.4803 67.3318 98.5002 67.4319C98.5201 67.532 98.5099 67.6357 98.4709 67.73C98.4318 67.8243 98.3657 67.9049 98.2809 67.9616C98.196 68.0183 98.0963 68.0485 97.9942 68.0486Z" fill="#474747"/>
<path d="M112.294 80.3108C116.985 80.3108 120.788 76.5076 120.788 71.8162C120.788 67.1248 116.985 63.3217 112.294 63.3217C107.602 63.3217 103.799 67.1248 103.799 71.8162C103.799 76.5076 107.602 80.3108 112.294 80.3108Z" fill="white"/>
<path d="M112.294 80.8268C110.512 80.8268 108.77 80.2984 107.288 79.3083C105.806 78.3182 104.651 76.9109 103.969 75.2644C103.287 73.6179 103.108 71.8061 103.456 70.0582C103.804 68.3102 104.662 66.7047 105.922 65.4445C107.182 64.1843 108.788 63.3261 110.536 62.9784C112.284 62.6307 114.095 62.8092 115.742 63.4912C117.388 64.1733 118.796 65.3282 119.786 66.81C120.776 68.2919 121.304 70.034 121.304 71.8162C121.302 74.2051 120.351 76.4954 118.662 78.1846C116.973 79.8738 114.683 80.8241 112.294 80.8268V80.8268ZM112.294 63.8375C110.716 63.8374 109.173 64.3054 107.861 65.182C106.549 66.0587 105.526 67.3048 104.922 68.7628C104.318 70.2207 104.16 71.8249 104.468 73.3727C104.776 74.9204 105.536 76.3421 106.652 77.458C107.768 78.5738 109.189 79.3337 110.737 79.6416C112.285 79.9495 113.889 79.7915 115.347 79.1876C116.805 78.5837 118.051 77.5611 118.928 76.249C119.804 74.9369 120.272 73.3943 120.272 71.8162C120.27 69.7009 119.429 67.6728 117.933 66.1771C116.437 64.6813 114.409 63.8399 112.294 63.8375V63.8375Z" fill="#474747"/>
<path d="M97.9942 86.6431C97.8922 86.6431 97.7924 86.6128 97.7076 86.5561C97.6228 86.4994 97.5567 86.4188 97.5176 86.3246C97.4786 86.2303 97.4683 86.1266 97.4882 86.0265C97.5081 85.9264 97.5573 85.8345 97.6294 85.7623L113.344 70.0477C113.442 69.9537 113.572 69.9017 113.707 69.9029C113.842 69.9041 113.972 69.9583 114.068 70.054C114.163 70.1497 114.217 70.2791 114.219 70.4144C114.22 70.5497 114.168 70.68 114.074 70.7773L98.359 86.4928C98.3111 86.5406 98.2542 86.5785 98.1916 86.6043C98.129 86.6301 98.0619 86.6433 97.9942 86.6431V86.6431Z" fill="#474747"/>
<path d="M114.041 77.3209H107.316C107.179 77.3209 107.048 77.2665 106.951 77.1698C106.855 77.073 106.8 76.9418 106.8 76.8049C106.8 76.668 106.855 76.5368 106.951 76.44C107.048 76.3433 107.179 76.2889 107.316 76.2889H114.041C114.178 76.2889 114.31 76.3433 114.406 76.44C114.503 76.5368 114.557 76.668 114.557 76.8049C114.557 76.9418 114.503 77.073 114.406 77.1698C114.31 77.2665 114.178 77.3209 114.041 77.3209Z" fill="#474747"/>
<path d="M110.679 73.9583C110.542 73.9583 110.411 73.9039 110.314 73.8072C110.217 73.7104 110.163 73.5791 110.163 73.4423V70.4125C110.163 70.2757 110.217 70.1444 110.314 70.0477C110.411 69.9509 110.542 69.8965 110.679 69.8965C110.816 69.8965 110.947 69.9509 111.044 70.0477C111.141 70.1444 111.195 70.2757 111.195 70.4125V73.4423C111.195 73.5791 111.141 73.7104 111.044 73.8072C110.947 73.9039 110.816 73.9583 110.679 73.9583V73.9583Z" fill="#474747"/>
<path d="M97.9942 96.8732C97.9264 96.8733 97.8593 96.86 97.7967 96.834C97.7341 96.8081 97.6773 96.77 97.6294 96.722L83.5151 82.6077C83.4658 82.5601 83.4265 82.5031 83.3994 82.4402C83.3724 82.3772 83.3582 82.3095 83.3576 82.241C83.357 82.1725 83.37 82.1045 83.396 82.0411C83.4219 81.9777 83.4602 81.9201 83.5087 81.8717C83.5571 81.8232 83.6147 81.7849 83.6782 81.7589C83.7416 81.733 83.8095 81.7199 83.878 81.7205C83.9465 81.7211 84.0143 81.7354 84.0772 81.7624C84.1402 81.7895 84.1971 81.8288 84.2447 81.878L98.359 95.9924C98.4312 96.0645 98.4803 96.1565 98.5002 96.2566C98.5201 96.3566 98.5099 96.4604 98.4708 96.5546C98.4318 96.6489 98.3657 96.7295 98.2808 96.7862C98.196 96.8429 98.0963 96.8732 97.9942 96.8732V96.8732Z" fill="#474747"/>
<path d="M88.2032 92.7558C87.3731 92.7502 86.5483 92.6239 85.7546 92.3809C83.4276 91.6858 81.2336 90.0933 79.5765 87.8968C76.1207 83.3156 76.1001 77.4827 79.5306 74.895C82.9612 72.3073 88.5641 73.929 92.0197 78.5103C95.4759 83.0917 95.4965 88.9244 92.066 91.5123C90.9502 92.3403 89.5925 92.7774 88.2032 92.7558V92.7558ZM83.4065 74.6843C82.2376 74.6621 81.0941 75.0257 80.1527 75.7189C77.1771 77.964 77.2879 83.1483 80.4011 87.2754C81.9267 89.2976 83.933 90.7596 86.0508 91.392C88.1122 92.0076 90.0278 91.7577 91.4451 90.6886C94.4207 88.4431 94.3101 83.259 91.1967 79.1317C89.0565 76.2947 86.046 74.6843 83.4065 74.6843Z" fill="#474747"/>
<path d="M90.9886 89.8676C90.8517 89.8676 90.7205 89.8132 90.6237 89.7165C90.527 89.6197 90.4726 89.4885 90.4726 89.3516V84.7964C90.4726 84.6595 90.527 84.5283 90.6237 84.4315C90.7205 84.3347 90.8517 84.2804 90.9886 84.2804C91.1254 84.2804 91.2567 84.3347 91.3534 84.4315C91.4502 84.5283 91.5046 84.6595 91.5046 84.7964V89.3516C91.5046 89.4885 91.4502 89.6197 91.3534 89.7165C91.2567 89.8132 91.1254 89.8676 90.9886 89.8676Z" fill="#474747"/>
<path d="M87.3732 86.252H83.8798C83.743 86.252 83.6117 86.1976 83.515 86.1009C83.4182 86.0041 83.3638 85.8728 83.3638 85.736C83.3638 85.5991 83.4182 85.4679 83.515 85.3711C83.6117 85.2744 83.743 85.22 83.8798 85.22H87.3732C87.51 85.22 87.6413 85.2744 87.738 85.3711C87.8348 85.4679 87.8892 85.5991 87.8892 85.736C87.8892 85.8728 87.8348 86.0041 87.738 86.1009C87.6413 86.1976 87.51 86.252 87.3732 86.252Z" fill="#474747"/>
<path d="M16.8361 104.673H13.0005C12.8636 104.673 12.7324 104.619 12.6356 104.522C12.5388 104.425 12.4845 104.294 12.4845 104.157V94.6671C12.4845 94.5302 12.5388 94.399 12.6356 94.3022C12.7324 94.2055 12.8636 94.1511 13.0005 94.1511H16.8361C16.9729 94.1511 17.1042 94.2055 17.2009 94.3022C17.2977 94.399 17.3521 94.5302 17.3521 94.6671V104.157C17.3521 104.294 17.2977 104.425 17.2009 104.522C17.1042 104.619 16.9729 104.673 16.8361 104.673ZM13.5165 103.641H16.3201V95.1831H13.5165V103.641Z" fill="#474747"/>
<path d="M18.1579 90.8537H15.4725C15.3356 90.8537 15.2044 90.7993 15.1076 90.7026C15.0108 90.6058 14.9565 90.4746 14.9565 90.3377V69.9901C14.9565 69.8532 15.0108 69.722 15.1076 69.6252C15.2044 69.5285 15.3356 69.4741 15.4725 69.4741H18.1579C18.2948 69.4741 18.426 69.5285 18.5228 69.6252C18.6195 69.722 18.6739 69.8532 18.6739 69.9901V90.3377C18.6739 90.4746 18.6195 90.6058 18.5228 90.7026C18.426 90.7993 18.2948 90.8537 18.1579 90.8537ZM15.9885 89.8217H17.6419V70.5061H15.9885V89.8217Z" fill="#474747"/>
<path d="M60.4175 73.0993H6.71033V78.8536H60.4175V73.0993Z" fill="white"/>
<path d="M60.4177 79.3698H6.7096C6.57275 79.3698 6.4415 79.3154 6.34474 79.2186C6.24797 79.1219 6.1936 78.9906 6.1936 78.8538V73.0993C6.1936 72.9625 6.24797 72.8312 6.34474 72.7345C6.4415 72.6377 6.57275 72.5833 6.7096 72.5833H60.4177C60.5545 72.5833 60.6857 72.6377 60.7825 72.7345C60.8793 72.8312 60.9337 72.9625 60.9337 73.0993V78.8538C60.9337 78.9906 60.8793 79.1219 60.7825 79.2186C60.6857 79.3154 60.5545 79.3698 60.4177 79.3698ZM7.22629 78.3378H59.9016V73.6153H7.2256L7.22629 78.3378Z" fill="#474747"/>
<path d="M60.4175 78.8538H6.71033V84.608H60.4175V78.8538Z" fill="white"/>
<path d="M60.4177 85.124H6.7096C6.57275 85.124 6.4415 85.0697 6.34474 84.9729C6.24797 84.8761 6.1936 84.7449 6.1936 84.608V78.8538C6.1936 78.7169 6.24797 78.5857 6.34474 78.4889C6.4415 78.3921 6.57275 78.3378 6.7096 78.3378H60.4177C60.5545 78.3378 60.6857 78.3921 60.7825 78.4889C60.8793 78.5857 60.9337 78.7169 60.9337 78.8538V84.608C60.9337 84.7449 60.8793 84.8761 60.7825 84.9729C60.6857 85.0697 60.5545 85.124 60.4177 85.124ZM7.22629 84.092H59.9016V79.3698H7.2256L7.22629 84.092Z" fill="#474747"/>
<path d="M16.8152 77.4712C16.5614 77.4712 16.3133 77.396 16.1023 77.255C15.8913 77.1139 15.7268 76.9135 15.6296 76.679C15.5325 76.4445 15.5071 76.1865 15.5566 75.9376C15.6061 75.6886 15.7283 75.46 15.9078 75.2805C16.0873 75.101 16.316 74.9788 16.5649 74.9293C16.8138 74.8798 17.0719 74.9052 17.3063 75.0023C17.5408 75.0995 17.7413 75.2639 17.8823 75.475C18.0233 75.686 18.0985 75.9341 18.0985 76.1879C18.0982 76.5282 17.9629 76.8544 17.7223 77.095C17.4817 77.3355 17.1555 77.4709 16.8152 77.4712V77.4712ZM16.8152 75.9366C16.7655 75.9366 16.717 75.9514 16.6756 75.979C16.6343 76.0066 16.6021 76.0459 16.5831 76.0918C16.5641 76.1377 16.5591 76.1882 16.5688 76.237C16.5785 76.2857 16.6024 76.3305 16.6376 76.3656C16.6727 76.4008 16.7175 76.4247 16.7662 76.4344C16.815 76.4441 16.8655 76.4391 16.9114 76.4201C16.9573 76.4011 16.9966 76.3689 17.0242 76.3275C17.0518 76.2862 17.0665 76.2376 17.0665 76.1879C17.0665 76.1213 17.0399 76.0575 16.9928 76.0103C16.9457 75.9632 16.8819 75.9367 16.8152 75.9366V75.9366Z" fill="#474747"/>
<path d="M16.8152 83.0143C16.5614 83.0143 16.3133 82.939 16.1023 82.798C15.8913 82.657 15.7268 82.4566 15.6296 82.2221C15.5325 81.9876 15.5071 81.7296 15.5566 81.4806C15.6061 81.2317 15.7283 81.003 15.9078 80.8236C16.0873 80.6441 16.316 80.5219 16.5649 80.4723C16.8138 80.4228 17.0719 80.4482 17.3063 80.5454C17.5408 80.6425 17.7413 80.807 17.8823 81.018C18.0233 81.2291 18.0985 81.4772 18.0985 81.731C18.0982 82.0712 17.9629 82.3974 17.7223 82.638C17.4817 82.8786 17.1555 83.0139 16.8152 83.0143ZM16.8152 81.4797C16.7655 81.4797 16.717 81.4944 16.6756 81.522C16.6343 81.5497 16.6021 81.5889 16.5831 81.6348C16.5641 81.6807 16.5591 81.7313 16.5688 81.78C16.5785 81.8287 16.6024 81.8735 16.6376 81.9087C16.6727 81.9438 16.7175 81.9678 16.7662 81.9775C16.815 81.9871 16.8655 81.9822 16.9114 81.9631C16.9573 81.9441 16.9966 81.9119 17.0242 81.8706C17.0518 81.8293 17.0665 81.7807 17.0665 81.731C17.0665 81.6644 17.04 81.6005 16.9929 81.5533C16.9458 81.5062 16.8819 81.4797 16.8152 81.4797Z" fill="#474747"/>
<path d="M64.7557 95.1831H3.95127C3.81442 95.1831 3.68317 95.1287 3.5864 95.032C3.48964 94.9352 3.43527 94.8039 3.43527 94.6671V90.3377C3.43527 90.2008 3.48964 90.0696 3.5864 89.9728C3.68317 89.876 3.81442 89.8217 3.95127 89.8217H64.7557C64.8925 89.8217 65.0238 89.876 65.1205 89.9728C65.2173 90.0696 65.2717 90.2008 65.2717 90.3377V94.6671C65.2717 94.8039 65.2173 94.9352 65.1205 95.032C65.0238 95.1287 64.8925 95.1831 64.7557 95.1831ZM4.46727 94.1511H64.2397V90.8537H4.46727V94.1511Z" fill="#474747"/>
</g>
<path d="M44.584 98.5706L45.2648 103.494C45.3666 104.23 46.056 104.78 46.8761 104.78H68.922C69.7428 104.78 70.4314 104.23 70.5333 103.494L71.2141 98.5706H44.584Z" fill="#D6D6D4"/>
<path d="M68.4471 104.78L70.0518 104.366L71.2141 98.5706H44.584L44.8456 100.463H66.8616C70.004 100.463 68.4471 104.78 68.4471 104.78Z" fill="#BABABA"/>
<path d="M73.8828 96.905L79.8956 48.8293H35.9014L41.9147 96.905C41.9763 97.3691 42.2055 97.7947 42.5592 98.1015C42.9129 98.4084 43.3666 98.5752 43.8348 98.5706H71.9628C72.431 98.5752 72.8847 98.4084 73.2383 98.1015C73.592 97.7947 73.8212 97.3691 73.8828 96.905Z" fill="#5EB173"/>
<path d="M73.8828 96.905L79.8956 48.8293H35.9014L41.9147 96.905C41.9763 97.3691 42.2055 97.7947 42.5592 98.1015C42.9129 98.4084 43.3666 98.5752 43.8348 98.5706H71.9628C72.431 98.5752 72.8847 98.4084 73.2383 98.1015C73.592 97.7947 73.8212 97.3691 73.8828 96.905Z" fill="#5EB173"/>
<g style="mix-blend-mode:multiply" opacity="0.34">
<path d="M56.6756 88.1773C56.3577 88.1722 56.0509 88.0602 55.8044 87.8593C55.6049 87.6752 55.4461 87.4513 55.3382 87.2021C55.2304 86.9529 55.1759 86.6838 55.1783 86.4123C55.157 86.0524 55.2109 85.692 55.3364 85.354C55.462 85.016 55.6566 84.7079 55.9078 84.4493C56.0387 84.3239 56.4365 83.9417 56.9548 83.9417C57.0086 83.9417 57.0624 83.9459 57.1156 83.9542C57.3013 83.9937 57.4768 84.0714 57.6308 84.1824C57.7848 84.2935 57.9139 84.4355 58.01 84.5992C58.1961 84.8927 58.3218 85.2202 58.38 85.5628C58.4381 85.9054 58.4274 86.2561 58.3485 86.5944C58.1572 87.3438 57.5194 88.1533 56.7145 88.1768L56.6756 88.1773ZM56.8459 85.8115C56.6964 86.1687 56.7306 86.4011 56.7735 86.4403C56.7783 86.4443 56.7834 86.4478 56.7888 86.4508C56.8269 86.4046 56.8557 86.3514 56.8737 86.2943C56.9191 86.1347 56.909 85.9645 56.845 85.8115H56.8459Z" fill="#60A06C"/>
</g>
<g style="mix-blend-mode:multiply" opacity="0.34">
<path d="M58.6743 90.3089C58.4526 90.3109 58.2355 90.2467 58.0506 90.1246C57.6655 89.8666 57.694 89.5267 57.8003 88.2659C57.8676 87.4677 57.9692 86.2614 58.0547 84.3605C58.0591 84.2635 58.0648 84.1668 58.0719 84.0703H58.0391C57.9985 84.0703 57.9594 84.0721 57.9218 84.0757C57.7852 84.0884 57.6483 84.0939 57.5114 84.0991C57.3628 84.1049 57.2224 84.1104 57.0851 84.1259C57.0277 84.1324 56.9768 84.1388 56.9319 84.1445C56.8461 84.1576 56.7596 84.1654 56.6729 84.1679C56.6039 84.1708 56.535 84.1592 56.4708 84.1339C56.4065 84.1086 56.3483 84.0701 56.2998 84.021C55.9456 83.6519 56.3342 82.881 56.6324 82.5886C56.7628 82.4696 56.9156 82.3779 57.0818 82.3186C57.2481 82.2593 57.4244 82.2337 57.6006 82.2433C57.8672 82.2485 58.1323 82.2848 58.3905 82.3515C58.5296 81.8804 58.8144 81.4655 59.204 81.1663C59.4986 80.9454 59.8539 80.8204 60.2219 80.808C60.291 80.808 60.36 80.8131 60.4283 80.8232C60.6921 80.8547 60.9382 80.9718 61.129 81.1567C61.3454 81.3826 61.4646 81.6844 61.461 81.9972C61.606 81.9462 61.7585 81.9197 61.9122 81.919C61.9739 81.919 62.0356 81.9236 62.0967 81.9327C62.335 81.9614 62.5573 82.0674 62.7297 82.2344C62.858 82.3777 62.9497 82.5499 62.9968 82.7364C63.0439 82.9229 63.045 83.1181 63.0001 83.3051L62.9325 83.5989C62.9856 83.577 63.0342 83.5454 63.0759 83.5058C63.193 83.374 63.2585 83.2043 63.2603 83.028L63.3205 82.3213L64.2049 83.1484L64.2328 83.204C64.3876 83.5136 64.2833 83.9143 63.9314 84.3622C63.6734 84.6919 63.1769 84.8522 62.4149 84.8522C62.1641 84.851 61.9135 84.8365 61.6641 84.8089C61.5993 85.3985 61.5719 85.9917 61.5819 86.5848C61.591 86.935 61.6015 87.2473 61.6108 87.5263C61.6624 89.0518 61.683 89.6832 61.191 90.0441C61.0105 90.1734 60.7938 90.2424 60.5718 90.2412C60.3706 90.2429 60.1735 90.1846 60.0057 90.0736C59.9232 90.0234 59.8542 89.9538 59.8044 89.8711C59.7547 89.7883 59.7257 89.6947 59.72 89.5982C59.6541 89.7963 59.5277 89.9687 59.3588 90.0914C59.1594 90.2344 58.9197 90.3106 58.6743 90.3089ZM59.8439 84.4534C59.7675 85.3134 59.7873 86.1331 59.7874 86.1426C59.7978 86.5463 59.81 86.9068 59.8206 87.2288C59.8249 87.361 59.8294 87.4868 59.833 87.6085C59.882 86.9721 59.9378 86.1403 59.9878 85.0404C59.9962 84.854 60.0095 84.6737 60.0274 84.5014C59.9661 84.4854 59.9051 84.4695 59.8445 84.4534H59.8439ZM62.051 83.5965C62.2214 83.6352 62.3954 83.6563 62.5702 83.6594C62.622 83.6596 62.6736 83.6567 62.725 83.6506L62.5014 83.5315C62.4419 83.498 62.3751 83.4795 62.3069 83.4776C62.2918 83.4776 62.2767 83.4788 62.2618 83.4811C62.1841 83.5034 62.1123 83.5428 62.0516 83.5965H62.051ZM60.3777 83.0423C60.4624 82.8471 60.5749 82.6652 60.7116 82.5022C60.7004 82.5022 60.6896 82.5008 60.6786 82.5008C60.6565 82.5008 60.6345 82.5027 60.6127 82.5063C60.482 82.5444 60.3649 82.619 60.2752 82.7215C60.2184 82.7899 60.173 82.8671 60.1411 82.9501L60.3777 83.0423Z" fill="#60A06C"/>
</g>
<g style="mix-blend-mode:multiply" opacity="0.34">
<path d="M62.559 88.6007C62.2067 88.6161 61.8627 88.4913 61.6022 88.2536C61.2713 87.9225 61.1634 87.3313 61.3062 86.6319C61.461 85.8727 61.9643 84.8562 62.8714 84.4905C63.1102 84.3963 63.3639 84.3459 63.6206 84.3416C63.9216 84.332 64.2158 84.4322 64.4483 84.6237C64.6369 84.8009 64.7728 85.027 64.8408 85.2768C64.9087 85.5266 64.9062 85.7903 64.8334 86.0387C64.7701 86.2446 64.6632 86.4345 64.5199 86.5954C64.3766 86.7563 64.2004 86.8845 64.0031 86.9711C64.0569 87.0389 64.0896 87.121 64.0972 87.2071C64.1011 87.3866 64.0681 87.5649 64.0003 87.7311C63.9325 87.8973 63.8313 88.0479 63.703 88.1734C63.3899 88.4562 62.9808 88.609 62.559 88.6007ZM63.4352 85.7066C63.3745 85.7313 63.3175 85.7642 63.2658 85.8045C63.3248 85.7765 63.3815 85.7438 63.4352 85.7066Z" fill="#60A06C"/>
</g>
<g style="mix-blend-mode:multiply" opacity="0.34">
<path d="M65.3272 88.6715C64.9485 88.6814 64.5811 88.542 64.3043 88.2833C63.9775 87.9479 63.8673 87.3824 64.0016 86.7317C64.1736 85.8994 64.6869 85.1949 65.3102 84.937C65.5384 84.8454 65.7818 84.7976 66.0278 84.7963C66.1987 84.7874 66.3696 84.8158 66.5284 84.8795C66.6873 84.9431 66.8305 85.0406 66.948 85.1651C67.3319 85.6017 67.1926 86.2026 67.141 86.3763C67.0346 86.7195 66.8093 87.0134 66.5056 87.2052C66.5708 87.2779 66.6097 87.3705 66.616 87.468C66.6193 87.6335 66.5877 87.7978 66.5233 87.9502C66.4588 88.1027 66.363 88.2398 66.2421 88.3528C65.9872 88.5687 65.6611 88.6823 65.3272 88.6715Z" fill="#60A06C"/>
</g>
<g style="mix-blend-mode:multiply" opacity="0.34">
<path d="M52.7387 90.0396C52.4699 90.0402 52.2025 90.0011 51.9451 89.9235C51.093 89.6641 50.4055 88.9617 50.0089 87.9455C49.5801 86.8468 49.7087 85.4534 50.3331 84.2011C50.0883 84.2636 49.8565 84.3692 49.6487 84.5129C49.4681 84.6516 49.2528 84.7377 49.0264 84.762C48.9104 84.7625 48.7973 84.7252 48.7044 84.6557C48.5075 84.5086 48.4094 84.2319 48.4292 83.8765C48.4514 83.4716 48.6399 82.9027 49.0988 82.6323C49.2811 82.5282 49.4882 82.4753 49.6981 82.4794C50.1475 82.4794 50.6604 82.6818 51.1955 82.9305C51.6609 82.3902 52.2614 81.9832 52.9356 81.7509C53.254 81.6458 53.5863 81.5893 53.9215 81.5833C54.1123 81.5699 54.3037 81.5984 54.4823 81.6668C54.6609 81.7351 54.8224 81.8416 54.9556 81.9788C55.4682 82.5592 55.2356 83.6104 54.6976 84.2277C54.4386 84.525 53.952 84.8896 53.1056 84.9391C53.0596 84.9419 53.0151 84.9433 52.9716 84.9433C52.6592 84.9334 52.35 84.8781 52.0536 84.779C51.9757 84.757 51.9016 84.7341 51.83 84.7102C51.4968 85.8635 51.6496 87.0938 52.2162 87.5654C52.4342 87.7476 52.7063 87.8526 52.9901 87.8642C53.0559 87.8643 53.1215 87.8568 53.1855 87.8416C53.205 87.8372 53.6603 87.7243 53.7585 87.36C53.7826 87.2731 53.7868 87.1819 53.7707 87.0931C53.7547 87.0044 53.7188 86.9204 53.6658 86.8475C53.5916 86.771 53.4997 86.7142 53.3981 86.682C53.296 86.6404 53.0239 86.5301 53.0486 86.2391C53.0763 85.9097 53.4874 85.7597 53.857 85.7597C53.959 85.7593 54.0606 85.7718 54.1594 85.7967C54.9559 86.0021 55.5315 87.1254 55.3438 88.1082C55.211 88.6913 54.8571 89.2001 54.3567 89.5276C53.8832 89.8622 53.3174 90.0413 52.7377 90.0399L52.7387 90.0396ZM52.4014 83.538C52.5483 83.6319 52.7166 83.6871 52.8906 83.6985C52.9222 83.6984 52.9539 83.6964 52.9853 83.6925C53.2819 83.6564 53.6274 83.4792 53.7141 83.2109C53.7522 83.1155 53.7544 83.0097 53.7205 82.9128C53.6787 82.8906 53.6311 82.8815 53.5841 82.8867C53.3612 82.901 53.144 82.9627 52.9468 83.0674L52.922 83.0808C52.7197 83.1971 52.5427 83.3527 52.4014 83.5384V83.538Z" fill="#60A06C"/>
</g>
<path d="M35.9014 48.8293L36.3743 52.6104H72.9693C73.2989 52.6103 73.6248 52.6804 73.9253 52.816C74.2257 52.9515 74.4939 53.1494 74.7121 53.3965C74.9302 53.6436 75.0934 53.9342 75.1906 54.2492C75.2879 54.5641 75.317 54.8961 75.2762 55.2232L71.4614 94.7798C71.3902 95.5179 71.0796 96.2125 70.5769 96.7576C70.0742 97.3028 69.407 97.6686 68.6771 97.7992L64.369 98.5701L70.4956 98.5742L70.4968 98.5701H71.9628C72.431 98.5747 72.8847 98.4078 73.2383 98.101C73.592 97.7942 73.8212 97.3686 73.8828 96.9045L79.8956 48.8293H35.9014Z" fill="#60A06C"/>
<path d="M68.922 105.297H46.8756C45.8021 105.297 44.8898 104.552 44.7533 103.564L44.0725 98.6413C44.0624 98.5683 44.0681 98.4939 44.0891 98.4232C44.1102 98.3525 44.1462 98.2871 44.1947 98.2315C44.2432 98.1759 44.303 98.1314 44.3702 98.1009C44.4373 98.0703 44.5103 98.0546 44.584 98.0546H71.2141C71.2878 98.0546 71.3607 98.0704 71.4278 98.101C71.495 98.1315 71.5548 98.1761 71.6032 98.2317C71.6516 98.2873 71.6876 98.3526 71.7087 98.4233C71.7297 98.4939 71.7354 98.5683 71.7253 98.6413L71.0445 103.564C70.9078 104.552 69.9953 105.297 68.922 105.297ZM45.1759 99.0873L45.7755 103.424C45.8419 103.903 46.3149 104.265 46.8763 104.265H68.922C69.4829 104.265 69.9559 103.904 70.0228 103.424L70.6224 99.0873H45.1759Z" fill="#474747"/>
<path d="M71.9628 99.0866H43.8348C43.2412 99.0898 42.6668 98.8765 42.2192 98.4867C41.7716 98.0969 41.4813 97.5573 41.4029 96.9689L35.3894 48.8936C35.3803 48.821 35.3868 48.7473 35.4084 48.6774C35.43 48.6075 35.4662 48.5429 35.5146 48.4881C35.563 48.4332 35.6225 48.3893 35.6892 48.3592C35.7559 48.3292 35.8283 48.3136 35.9014 48.3136H79.8956C79.9688 48.3136 80.0411 48.3292 80.1077 48.3593C80.1744 48.3894 80.2339 48.4333 80.2823 48.4882C80.3307 48.543 80.3669 48.6075 80.3885 48.6774C80.4101 48.7473 80.4165 48.821 80.4075 48.8936L74.3942 96.9693C74.3156 97.5575 74.0254 98.0969 73.5779 98.4866C73.1304 98.8763 72.5562 99.0896 71.9628 99.0866ZM36.4859 49.3453L42.4268 96.8408C42.4738 97.1797 42.6426 97.4899 42.9018 97.7133C43.1609 97.9367 43.4926 98.0581 43.8348 98.0546H71.9628C72.3049 98.0581 72.6366 97.9368 72.8958 97.7134C73.155 97.4899 73.3238 97.1797 73.3708 96.8408L73.8828 96.9048L73.3708 96.8408L79.3117 49.3453H36.4859Z" fill="#474747"/>
<path d="M80.843 48.8293H34.9546C33.4599 48.8429 33.6656 48.0405 34.1835 46.5001C34.4921 45.5945 34.4921 44.6122 34.1835 43.7066C33.6658 42.1663 33.4599 41.364 34.9546 41.3775H80.843C82.3376 41.364 82.1318 42.1662 81.614 43.7066C81.3055 44.6122 81.3055 45.5945 81.614 46.5001C82.1316 48.0405 82.338 48.8429 80.843 48.8293Z" fill="#646464"/>
<path d="M81.6141 43.7066C81.9484 42.7119 82.1519 42.0256 81.8523 41.6674C81.7878 41.8939 81.7059 42.1436 81.6141 42.4173C81.3911 43.0734 81.329 43.7735 81.4329 44.4586C81.4706 44.203 81.5312 43.9513 81.6141 43.7066Z" fill="#7C7C7C"/>
<path d="M34.3646 44.4586C34.4686 43.7735 34.4065 43.0734 34.1835 42.4173C34.0917 42.1436 34.0098 41.8939 33.9453 41.6674C33.6457 42.0256 33.8492 42.7119 34.1835 43.7066C34.2662 43.9513 34.3269 44.203 34.3646 44.4586Z" fill="#7C7C7C"/>
<path d="M81.8523 47.25C81.6879 47.4466 81.3726 47.5446 80.843 47.5398H34.9546C34.425 47.5446 34.1097 47.4464 33.9453 47.25C33.6465 48.2992 33.7253 48.8403 34.9546 48.8293H80.843C82.0723 48.8405 82.1511 48.2992 81.8523 47.25Z" fill="#7C7C7C"/>
<g style="mix-blend-mode:overlay">
<g style="mix-blend-mode:overlay">
<path d="M81.6141 46.5C81.5858 46.4177 81.5624 46.3341 81.5403 46.2505C81.3169 47.062 81.3352 47.921 81.5927 48.7223C82.2329 48.4576 82.0189 47.7044 81.6141 46.5Z" fill="#646464"/>
</g>
<g style="mix-blend-mode:overlay">
<path d="M34.4123 45.4099C34.591 45.3361 35.257 43.6719 36.2871 43.6719H79.8956C81.1409 43.6719 81.3612 46.1767 81.5398 46.2505C81.5475 46.2268 81.6053 43.7305 81.6136 43.7066C82.1318 42.165 82.3375 41.3626 80.8396 41.3775H35.0016C33.4561 41.3467 33.66 42.1498 34.184 43.7059C34.1918 43.7305 34.4047 45.3862 34.4123 45.4099Z" fill="#646464"/>
</g>
<g style="mix-blend-mode:overlay">
<path d="M34.2048 48.7216C34.4624 47.9203 34.4806 47.0613 34.2573 46.2498C34.2342 46.3334 34.2117 46.417 34.1837 46.4994C33.7786 47.7044 33.5646 48.4576 34.2048 48.7216Z" fill="#646464"/>
</g>
</g>
<path d="M34.9081 49.3454C34.4599 49.3454 33.8443 49.2823 33.5038 48.8134C33.065 48.2083 33.3567 47.3404 33.6945 46.3356C33.9652 45.5371 33.9652 44.6716 33.6945 43.8731C33.356 42.8662 33.0643 41.9983 33.5031 41.3932C33.8555 40.908 34.507 40.8559 34.9585 40.8614H80.843C81.2978 40.8566 81.9414 40.9078 82.2936 41.3932C82.7326 41.9983 82.4409 42.8662 82.1031 43.871C81.8324 44.6696 81.8324 45.535 82.1031 46.3335C82.4417 47.3404 82.7335 48.2083 82.2945 48.8133C81.9429 49.2978 81.2948 49.3533 80.8415 49.3453H34.9081V49.3454ZM34.9228 41.8932C34.5074 41.8932 34.361 41.9694 34.3392 41.9995C34.2126 42.1737 34.5234 43.0981 34.6727 43.5422C35.0158 44.5553 35.0158 45.6532 34.6727 46.6664C34.5241 47.1086 34.2133 48.0329 34.3399 48.2071C34.3622 48.2379 34.5119 48.3195 34.9505 48.3133H80.8796C81.2909 48.3133 81.4374 48.2371 81.4593 48.207C81.5857 48.0327 81.2749 47.1086 81.1254 46.6643C80.7823 45.6512 80.7823 44.5532 81.1254 43.5401C81.2742 43.0979 81.5848 42.1736 81.4584 41.9993C81.4361 41.9684 81.2825 41.8872 80.8476 41.8932H34.9228Z" fill="#474747"/>
<path d="M79.5112 41.3772H36.2864L36.7095 39.8691C37.3846 37.4632 39.6839 35.7884 42.3119 35.7884H73.4857C76.1137 35.7884 78.413 37.4632 79.0881 39.8691L79.5112 41.3772Z" fill="#D6D6D4"/>
<path d="M79.5112 41.3772H36.2864L36.7095 39.8691C37.3846 37.4632 39.6839 35.7884 42.3119 35.7884H73.4857C76.1137 35.7884 78.413 37.4632 79.0881 39.8691L79.5112 41.3772Z" fill="#D6D6D4"/>
<path d="M45.357 37.5696L74.852 37.5607C76.9848 37.5607 78.2987 39.0968 78.8856 39.2848C77.8448 37.7219 75.5144 35.7888 73.4857 35.7888H42.3119C39.6839 35.7888 37.3846 37.4635 36.7095 39.8695L36.2864 41.3775H40.036C40.9397 39.3889 43.0176 37.5696 45.357 37.5696Z" fill="white"/>
<path d="M79.5114 41.8932H36.2864C36.2067 41.8932 36.1282 41.8748 36.0568 41.8393C35.9855 41.8039 35.9233 41.7524 35.8752 41.689C35.827 41.6255 35.7943 41.5517 35.7794 41.4735C35.7645 41.3952 35.768 41.3146 35.7895 41.2379L36.2126 39.7298C36.9491 37.1056 39.4572 35.2726 42.3119 35.2726H73.4857C76.3409 35.2726 78.8486 37.1056 79.585 39.7298L80.0081 41.2379C80.0296 41.3146 80.0331 41.3952 80.0182 41.4734C80.0033 41.5517 79.9706 41.6254 79.9225 41.6889C79.8744 41.7524 79.8122 41.8038 79.7409 41.8393C79.6696 41.8747 79.591 41.8932 79.5114 41.8932ZM36.9672 40.8612H78.8306L78.5913 40.0086C77.9793 37.8278 75.8799 36.3046 73.4857 36.3046H42.3119C39.9177 36.3046 37.8182 37.8278 37.2064 40.0086L36.9672 40.8612Z" fill="#474747"/>
<path d="M61.5121 32.3733H68.6845C69.298 32.3733 69.8864 32.617 70.3203 33.0508C70.7542 33.4845 70.998 34.0729 70.9982 34.6864V35.788H59.199V34.6864C59.1992 34.073 59.443 33.4848 59.8767 33.051C60.3105 32.6173 60.8987 32.3735 61.5121 32.3733Z" fill="#D6D6D4"/>
<path d="M61.5121 32.3733H68.6845C69.298 32.3733 69.8864 32.617 70.3203 33.0508C70.7542 33.4845 70.998 34.0729 70.9982 34.6864V35.788H59.199V34.6864C59.1992 34.073 59.443 33.4848 59.8767 33.051C60.3105 32.6173 60.8987 32.3735 61.5121 32.3733Z" fill="#D6D6D4"/>
<path d="M59.2183 35.7518C59.2183 35.1671 59.4505 34.6064 59.864 34.1929C60.2774 33.7795 60.8381 33.5472 61.4228 33.5472H68.8136C69.3493 33.5475 69.8666 33.7429 70.2686 34.097C70.6707 34.451 70.93 34.9394 70.998 35.4707V34.5779C70.998 33.9932 70.7658 33.4325 70.3523 33.019C69.9389 32.6056 69.3782 32.3733 68.7935 32.3733H61.403C61.1135 32.3733 60.8268 32.4303 60.5593 32.5411C60.2919 32.6519 60.0488 32.8143 59.8441 33.019C59.6394 33.2237 59.477 33.4667 59.3662 33.7342C59.2554 34.0017 59.1983 34.2884 59.1983 34.5779V35.7888H59.2183V35.7518Z" fill="white"/>
<path d="M56.4993 76.174C54.6721 76.174 51.3804 74.884 50.3176 71.4239C49.8122 69.9956 49.6533 68.4676 49.8541 66.9658C50.055 65.4641 50.6098 64.0315 51.4728 62.7862C52.7421 60.9668 54.4785 59.9233 56.2363 59.9233C56.7792 59.9243 57.3175 60.0229 57.8256 60.2141L57.8509 60.2237L57.8746 60.237C58.2403 60.4434 58.4491 60.6857 58.5129 60.9775C58.6216 61.4744 58.2845 61.9415 57.8576 62.533C57.0012 63.7198 55.828 65.345 56.9804 68.3449C58.3165 71.8215 58.3239 75.1196 57.495 75.9052C57.3068 76.0837 56.9718 76.174 56.4993 76.174Z" fill="#60A06C"/>
<path d="M70.9982 36.3047H59.199C59.0622 36.3047 58.9309 36.2504 58.8341 36.1536C58.7374 36.0568 58.683 35.9256 58.683 35.7887V34.6879C58.6839 33.9377 58.9823 33.2185 59.5128 32.688C60.0433 32.1575 60.7625 31.859 61.5128 31.8582H68.6851C69.435 31.8592 70.1538 32.1575 70.6841 32.6877C71.2144 33.2178 71.5129 33.9365 71.5142 34.6864V35.7872C71.5144 35.8551 71.5012 35.9223 71.4754 35.9851C71.4495 36.0479 71.4116 36.105 71.3636 36.1531C71.3157 36.2011 71.2587 36.2393 71.196 36.2653C71.1333 36.2913 71.0661 36.3047 70.9982 36.3047ZM59.715 35.2727H70.4822V34.6879C70.4817 34.2113 70.2921 33.7543 69.9551 33.4173C69.6181 33.0803 69.1611 32.8907 68.6845 32.8902H61.5121C61.0357 32.8907 60.579 33.08 60.242 33.4167C59.905 33.7534 59.7152 34.21 59.7143 34.6864L59.715 35.2727Z" fill="#474747"/>
<path d="M61.229 76.1288C60.9099 76.134 60.593 76.074 60.2979 75.9524C60.0028 75.8308 59.7356 75.6503 59.5128 75.4218C59.3321 75.2321 59.1927 75.0069 59.1034 74.7605C59.0141 74.5142 58.9768 74.2519 58.994 73.9905C59.0848 72.6179 58.6165 71.305 58.1636 70.0357C57.7508 68.8781 57.3607 67.7849 57.3581 66.6464C57.3481 62.4556 60.1593 61.1276 60.5057 60.9797C60.7334 60.8449 60.9938 60.7754 61.2584 60.7788C62.3764 60.7788 63.7472 61.8796 64.75 63.5814C65.6236 65.0803 66.0888 66.7821 66.099 68.517C66.1092 70.2519 65.6642 71.9592 64.8083 73.4683C63.8713 75.1592 62.5665 76.1288 61.2286 76.1288H61.229Z" fill="#60A06C"/>
<path d="M57.8772 60.0204C59.9054 61.167 54.7667 62.5789 56.8318 67.9524C58.2422 71.6219 58.0358 74.5665 57.4307 75.1392C56.8256 75.712 52.1085 75.028 50.8157 70.7981C48.6823 64.9992 53.3216 58.3204 57.8772 60.0204Z" fill="#F6F9E4"/>
<path d="M60.8353 60.7712C60.8353 60.7712 57.8641 61.9425 57.8741 66.1294C57.8796 68.4701 59.6863 70.8179 59.5095 73.4971C59.3867 75.358 62.5733 76.5864 64.68 72.7854C68.3921 66.0876 62.8901 59.4735 60.8353 60.7712Z" fill="#F6F9E4"/>
<path d="M55.9732 84.3536C55.1802 85.1146 55.1427 86.6705 55.8495 87.2491C56.0417 87.4055 56.2822 87.4903 56.5299 87.4891C57.1835 87.4698 57.6906 86.7575 57.8416 86.1646C58.0781 85.2372 57.5785 84.059 56.8889 83.9498C56.4637 83.8827 56.0908 84.2411 55.9732 84.3536ZM57.0249 86.0661C57.0069 86.1177 56.8973 86.4237 56.6662 86.4558C56.6121 86.4595 56.5579 86.452 56.5068 86.4339C56.4557 86.4159 56.4089 86.3876 56.3691 86.3507C56.1606 86.1615 56.1739 85.7262 56.3877 85.2618C56.5203 85.0509 56.6209 85.0093 56.6909 85.0143C56.9295 85.0308 57.1839 85.6204 57.0249 86.0661Z" fill="#F6F9E4"/>
<path d="M58.0705 89.4949C57.7035 89.2484 58.0162 88.7083 58.2253 84.032C58.2833 82.742 58.554 81.5705 59.2269 81.1052C59.5048 80.8899 59.854 80.7878 60.2042 80.8196C60.3944 80.8401 60.5726 80.9228 60.7111 81.0548C61.0338 81.3803 60.9292 81.8739 60.9175 81.9221C60.7551 81.8313 60.5675 81.7965 60.3834 81.823C60.1765 81.8727 59.9899 81.985 59.8492 82.1446C59.1956 82.8562 59.2706 85.8074 59.2706 85.8074C59.3337 88.2604 59.4598 89.1196 58.9813 89.471C58.8486 89.5641 58.6915 89.6161 58.5295 89.6203C58.3675 89.6246 58.2078 89.5809 58.0705 89.4949Z" fill="#F6F9E4"/>
<path d="M60.0244 89.4441C59.7068 89.2307 59.9775 88.7629 60.1595 84.7119C60.2097 83.5939 60.4441 82.5791 61.0269 82.1766C61.2676 81.99 61.5702 81.9015 61.8736 81.9291C62.0384 81.9469 62.1928 82.0185 62.3127 82.1329C62.3993 82.2353 62.4607 82.3567 62.4918 82.4871C62.523 82.6176 62.5231 82.7535 62.4921 82.884C62.3515 82.8055 62.1889 82.7753 62.0295 82.798C61.8502 82.841 61.6886 82.9383 61.5668 83.0767C60.9992 83.693 61.0656 86.2494 61.0656 86.2494C61.1201 88.3745 61.2288 89.1187 60.815 89.4223C60.7 89.5034 60.5636 89.5488 60.423 89.5527C60.2824 89.5566 60.1437 89.5188 60.0244 89.4441Z" fill="#F6F9E4"/>
<path d="M62.9273 87.188C62.842 87.2125 62.7527 87.2192 62.6648 87.2079C62.5768 87.1965 62.4922 87.1673 62.4159 87.122C62.0547 86.8606 62.1691 85.9443 62.6304 85.4226C62.6947 85.3499 63.1032 84.9032 63.456 85.027C63.5171 85.0449 63.5723 85.0788 63.6158 85.1252C63.6594 85.1716 63.6896 85.2289 63.7035 85.2911C63.7247 85.5754 63.1247 85.9113 62.5816 85.9509C62.3516 85.9665 62.1209 85.9328 61.9051 85.8519C61.746 86.0742 61.7711 86.2097 61.7897 86.2647C61.9006 86.5941 62.6376 86.5664 62.7377 86.5618C62.8019 86.5587 64.0917 86.4794 64.3304 85.6048C64.3853 85.4194 64.3886 85.2227 64.3401 85.0356C64.2916 84.8485 64.1932 84.6781 64.0552 84.5427C63.6127 84.1667 62.9238 84.4285 62.8298 84.4663C61.6166 84.955 61.0503 87.042 61.6748 87.6671C62.0384 88.031 62.887 87.982 63.2916 87.5847C63.5668 87.3141 63.6356 86.8841 63.557 86.8363C63.4816 86.7902 63.3074 87.0897 62.9273 87.188Z" fill="#F6F9E4"/>
<path d="M65.5164 87.4022C65.4405 87.4239 65.3611 87.4299 65.2828 87.4198C65.2045 87.4097 65.1292 87.3838 65.0613 87.3435C64.7386 87.1092 64.8664 86.3027 65.2522 85.8318C65.3115 85.7592 65.5974 85.4101 65.8315 85.4878C65.8904 85.5118 65.9408 85.5529 65.9762 85.6058C66.0115 85.6588 66.0301 85.7211 66.0297 85.7847C66.0197 86.0587 65.5549 86.2637 65.2082 86.3007C65.0033 86.3209 64.7967 86.2907 64.6062 86.2126C64.4646 86.4102 64.487 86.5308 64.503 86.5795C64.589 86.8356 65.0945 86.8635 65.3458 86.8437C65.7964 86.8093 66.4579 86.5413 66.6389 85.9335C66.6616 85.8566 66.7981 85.3669 66.5173 85.0477C66.2158 84.7047 65.6162 84.7671 65.2694 84.9101C64.2632 85.3261 63.7828 87.0865 64.3784 87.6983C64.7197 88.0487 65.4739 88.0845 65.838 87.7534C66.0892 87.5251 66.1449 87.1313 66.074 87.0877C66.009 87.0482 65.8539 87.3146 65.5164 87.4022Z" fill="#F6F9E4"/>
<path d="M63.4304 82.7131C63.4214 82.9725 63.3189 83.22 63.1417 83.4097C61.958 84.548 57.8572 81.3581 56.7011 82.4898C56.4508 82.7348 56.2308 83.2872 56.376 83.4386C56.4425 83.5074 56.5574 83.4756 56.8748 83.4398C57.1544 83.4082 57.4374 83.4152 57.7176 83.3882C58.4028 83.3237 59.4484 83.7351 60.5361 83.9654C60.8098 84.0234 62.9713 84.4653 63.4887 83.8053C63.554 83.7221 63.8917 83.2914 63.7527 83.0132L63.4304 82.7131Z" fill="#F6F9E4"/>
<path d="M51.3952 83.1458C52.1286 83.5017 52.3742 83.7489 52.8553 83.6902C53.237 83.6438 53.7289 83.4095 53.8701 82.9725C53.9258 82.8005 53.9585 82.4967 53.7958 82.3292C53.5478 82.0736 52.953 82.2432 52.6164 82.4184L52.5832 82.4356C51.0942 83.2477 50.6207 86.4833 51.8243 87.4842C51.9966 87.6333 52.2002 87.7419 52.42 87.8018C52.6399 87.8618 52.8704 87.8717 53.0945 87.8308C53.1642 87.8136 53.7714 87.6533 53.9201 87.1048C53.9589 86.9645 53.9645 86.8172 53.9366 86.6744C53.9086 86.5316 53.8479 86.3972 53.7592 86.2819C53.5383 86.0175 53.2132 86.0141 53.221 85.9231C53.2289 85.8289 53.5873 85.7033 53.9036 85.7855C54.5147 85.9431 54.9922 86.8806 54.8357 87.6994C54.7178 88.195 54.4135 88.6262 53.986 88.9034C53.683 89.1167 53.3355 89.2586 52.9698 89.3186C52.6041 89.3786 52.2295 89.3551 51.8742 89.2498C50.7125 88.8961 50.2559 87.7258 50.1583 87.4761C49.3147 85.3146 50.9028 82.3572 52.8684 81.7346C53.0132 81.6888 54.0763 81.352 54.5266 81.8617C54.9098 82.2955 54.6941 83.1665 54.2666 83.6567C53.7934 84.1992 53.0913 84.2403 52.9136 84.2506C52.5937 84.2586 52.2751 84.2083 51.9733 84.1021C51.0961 83.8546 51.0386 83.5803 50.5543 83.5082C49.6236 83.3696 49.0457 84.265 48.7395 84.0361C48.4684 83.8335 48.5923 82.8851 49.1024 82.5843C49.6126 82.2834 50.4358 82.6806 51.3952 83.1458Z" fill="#F6F9E4"/>
<path d="M70.8059 30.3202C70.7152 30.3479 70.6185 30.3501 70.5265 30.3265C70.4346 30.3028 70.3509 30.2543 70.2848 30.1862C70.2187 30.118 70.1726 30.033 70.1517 29.9404C70.1308 29.8478 70.1358 29.7512 70.1663 29.6613C70.6855 28.1265 70.7235 26.7828 70.2788 25.6682C69.8674 24.6363 69.1821 24.1075 68.3889 23.4958C67.5572 22.8538 66.6144 22.1261 65.9727 20.7202C65.0218 18.6372 65.4007 16.5474 65.5255 15.8612C65.7909 14.3994 66.3547 13.4519 66.9001 12.5359C67.3478 11.8395 67.7137 11.0939 67.9908 10.3139C68.0122 10.2496 68.046 10.1901 68.0904 10.1389C68.1348 10.0877 68.1888 10.0457 68.2494 10.0154C68.31 9.9851 68.376 9.96702 68.4436 9.9622C68.5112 9.95737 68.5791 9.96591 68.6434 9.98732C68.7077 10.0087 68.7671 10.0426 68.8183 10.087C68.8695 10.1314 68.9115 10.1854 68.9418 10.246C68.9721 10.3066 68.9902 10.3726 68.995 10.4402C68.9998 10.5078 68.9913 10.5757 68.9699 10.6399C68.6697 11.4905 68.2727 12.3037 67.7868 13.0636C67.2655 13.9397 66.773 14.767 66.5408 16.0455C66.4306 16.6532 66.0946 18.5023 66.9115 20.2916C67.4471 21.4652 68.2108 22.0547 69.0194 22.6788C69.8562 23.3248 70.7216 23.9927 71.2376 25.2866C71.7759 26.6359 71.7444 28.2194 71.1441 29.9935C71.1176 30.0709 71.0732 30.1408 71.0144 30.1976C70.9556 30.2544 70.8841 30.2964 70.8059 30.3202Z" fill="#474747"/>
<path d="M71.5244 21.0229C71.4392 21.0492 71.3488 21.053 71.2617 21.0339C71.1747 21.0148 71.0941 20.9735 71.0278 20.914C69.9585 19.9553 69.2746 18.8691 68.9954 17.6853C68.5373 15.7438 69.3123 14.2151 70.1325 12.5965C70.666 11.5443 71.2172 10.4563 71.4798 9.16284C71.9696 6.74956 71.3257 4.0193 69.5663 1.04857C69.4994 0.930971 69.4814 0.791802 69.5161 0.661038C69.5508 0.530274 69.6355 0.418376 69.7519 0.349442C69.8684 0.280509 70.0072 0.260055 70.1385 0.292486C70.2699 0.324917 70.3832 0.407639 70.4542 0.522835C72.348 3.71966 73.0333 6.69627 72.4911 9.36805C72.2008 10.7983 71.5908 12.0017 71.0531 13.063C70.2888 14.5712 69.6285 15.8739 69.9999 17.4485C70.2299 18.4227 70.8076 19.3303 71.7169 20.1456C71.7849 20.2066 71.8355 20.2845 71.8636 20.3715C71.8916 20.4584 71.896 20.5512 71.8765 20.6404C71.8569 20.7296 71.814 20.812 71.7521 20.8792C71.6903 20.9465 71.6117 20.996 71.5244 21.0229Z" fill="#474747"/>
<path d="M63.1398 19.0302C63.009 19.0703 62.8676 19.0569 62.7467 18.9928C62.6258 18.9287 62.5353 18.8192 62.4951 18.6884C61.8071 16.4491 63.086 13.4662 63.1414 13.3404C63.1986 13.219 63.3008 13.1247 63.4263 13.0774C63.5518 13.03 63.6909 13.0335 63.8139 13.087C63.9369 13.1404 64.0343 13.2397 64.0854 13.3638C64.1365 13.4878 64.1372 13.6269 64.0875 13.7515C64.0756 13.7789 62.9062 16.5123 63.4814 18.3849C63.5014 18.4497 63.5084 18.5178 63.502 18.5853C63.4957 18.6528 63.4761 18.7184 63.4444 18.7783C63.4126 18.8382 63.3694 18.8913 63.3172 18.9345C63.2649 18.9778 63.2047 19.0102 63.1398 19.0302Z" fill="#474747"/>
<path d="M40.7129 121.854C41.8086 122.241 42.5176 122.704 42.8398 123.243C43.168 123.782 43.332 124.312 43.332 124.834C43.332 125.953 42.6143 127.104 41.1787 128.288C39.7432 129.466 38.2373 130.055 36.6611 130.055C35.7822 130.055 35.3428 129.788 35.3428 129.255C35.3428 128.376 35.9551 127.937 37.1797 127.937H37.6104C38.1846 127.937 38.9082 127.605 39.7812 126.943C40.6543 126.275 41.0908 125.599 41.0908 124.913C41.0908 124.497 40.9121 124.128 40.5547 123.806C40.1973 123.478 39.7197 123.313 39.1221 123.313C39.0752 123.313 38.8438 123.404 38.4277 123.586C38.0059 123.768 37.6953 123.858 37.4961 123.858C36.9453 123.858 36.585 123.791 36.415 123.656C36.251 123.521 36.1689 123.249 36.1689 122.839C36.1689 122.552 36.7666 122.165 37.9619 121.679C38.6416 121.409 39.3213 120.949 40.001 120.299C40.6807 119.643 41.0205 119.089 41.0205 118.638C41.0205 118.058 40.5986 117.768 39.7549 117.768C38.9639 117.768 38.1875 117.855 37.4258 118.031C36.6641 118.207 36.2422 118.424 36.1602 118.682C36.0781 118.939 35.8613 120.281 35.5098 122.707C35.1582 125.133 34.9824 126.533 34.9824 126.908L34.8945 128.095C34.8477 128.692 34.71 129.076 34.4814 129.246C34.2529 129.422 33.9922 129.51 33.6992 129.51C32.9141 129.51 32.5215 129.003 32.5215 127.989C32.5215 127.831 32.5713 127.547 32.6709 127.137C32.9287 126.076 33.1777 124.6 33.418 122.707C33.6641 120.814 33.7871 119.795 33.7871 119.648C33.7871 119.355 33.7285 119.209 33.6113 119.209L33.374 119.227C33.1982 119.244 33.043 119.191 32.9082 119.068C32.7734 118.939 32.6855 118.819 32.6445 118.708C32.6035 118.597 32.583 118.494 32.583 118.4C32.583 117.82 33.3975 117.27 35.0264 116.748C36.6553 116.227 38.3662 115.966 40.1592 115.966C41.1143 115.966 41.8877 116.221 42.4795 116.73C43.0771 117.234 43.376 117.82 43.376 118.488C43.376 118.969 43.1855 119.458 42.8047 119.956C42.4238 120.448 41.7266 121.081 40.7129 121.854ZM47.4277 124.641L47.5771 124.359C48.2861 122.936 49.0479 121.781 49.8623 120.896C50.6826 120.006 51.4824 119.561 52.2617 119.561C52.8594 119.561 53.3457 119.725 53.7207 120.053C54.1016 120.381 54.292 120.771 54.292 121.222C54.292 121.503 54.2275 121.746 54.0986 121.951C53.9697 122.15 53.791 122.25 53.5625 122.25C53.1992 122.25 52.8682 122.101 52.5693 121.802C52.3584 121.608 52.1914 121.512 52.0684 121.512C51.6289 121.512 50.8936 122.194 49.8623 123.56C48.8311 124.925 48.21 126.46 47.999 128.165C47.9346 128.657 47.791 129 47.5684 129.193C47.3457 129.393 47.0439 129.492 46.6631 129.492C46.2588 129.492 45.9717 129.264 45.8018 128.807C45.6318 128.344 45.5469 127.591 45.5469 126.548C45.5469 126.12 45.5586 125.543 45.582 124.816C45.6055 124.131 45.6729 123.293 45.7842 122.303C45.8135 122.045 45.834 121.843 45.8457 121.696C45.8984 121.122 45.957 120.729 46.0215 120.519C46.0918 120.302 46.25 120.1 46.4961 119.912C46.7422 119.725 47.0146 119.631 47.3135 119.631C47.6299 119.631 47.8701 119.722 48.0342 119.903C48.1982 120.085 48.2803 120.284 48.2803 120.501C48.2803 120.776 48.1484 121.348 47.8848 122.215C47.791 122.514 47.7119 122.871 47.6475 123.287L47.4277 124.641ZM62.3252 125.977C62.3252 126.586 61.8125 127.315 60.7871 128.165C59.7617 129.009 58.6045 129.431 57.3154 129.431C56.3252 129.431 55.5459 129.12 54.9775 128.499C54.4092 127.872 54.125 127.002 54.125 125.889C54.125 124.248 54.7051 122.71 55.8652 121.274C57.0254 119.839 58.2646 119.121 59.583 119.121C60.2393 119.121 60.7666 119.329 61.165 119.745C61.5635 120.161 61.7627 120.656 61.7627 121.23C61.7627 122.25 61.2734 123.223 60.2949 124.148C59.3164 125.068 58.0625 125.704 56.5332 126.056C56.3574 126.097 56.2695 126.202 56.2695 126.372C56.2695 126.653 56.3926 126.923 56.6387 127.181C56.8906 127.433 57.2246 127.559 57.6406 127.559C58.8184 127.559 59.9873 126.952 61.1475 125.739C61.3701 125.505 61.5869 125.388 61.7979 125.388C62.1494 125.388 62.3252 125.584 62.3252 125.977ZM56.4277 124.421C57.3535 124.233 58.168 123.838 58.8711 123.234C59.5801 122.631 59.9346 122.083 59.9346 121.591C59.9346 121.397 59.8789 121.236 59.7676 121.107C59.6621 120.973 59.5244 120.905 59.3545 120.905C58.8447 120.905 58.2793 121.28 57.6582 122.03C57.0371 122.78 56.627 123.577 56.4277 124.421ZM69.8135 126.056C68.2725 128.089 66.7842 129.105 65.3486 129.105C64.8213 129.105 64.3672 128.897 63.9863 128.481C63.6055 128.065 63.415 127.535 63.415 126.891C63.415 125.338 64.1064 123.686 65.4893 121.934C66.8721 120.176 68.2666 119.297 69.6729 119.297C70.3877 119.297 70.8564 119.657 71.0791 120.378C71.7529 120.378 72.0898 120.636 72.0898 121.151C72.0898 121.397 72.0254 121.843 71.8965 122.487C71.6621 123.694 71.5449 124.658 71.5449 125.379C71.5449 126.129 71.5947 126.656 71.6943 126.961C71.7998 127.266 71.876 127.465 71.9229 127.559C71.9697 127.652 72.1104 127.752 72.3447 127.857C72.5791 127.969 72.6963 128.124 72.6963 128.323C72.6963 128.622 72.5439 128.871 72.2393 129.07C71.9404 129.27 71.627 129.369 71.2988 129.369C70.1973 129.369 69.7021 128.265 69.8135 126.056ZM69.2861 121.178C68.6943 121.178 67.9238 121.834 66.9746 123.146C66.0312 124.453 65.5596 125.563 65.5596 126.478C65.5596 126.958 65.6592 127.198 65.8584 127.198C66.5498 127.198 67.3994 126.586 68.4072 125.361C69.4209 124.131 69.9277 123.056 69.9277 122.136C69.9277 121.843 69.8604 121.611 69.7256 121.441C69.5967 121.266 69.4502 121.178 69.2861 121.178ZM82.4785 121.661H82.4873C82.4873 121.661 82.4814 121.667 82.4697 121.679C82.1299 121.866 81.8545 122.03 81.6436 122.171C81.251 122.435 80.8555 122.719 80.457 123.023C80 123.375 79.6572 123.671 79.4287 123.911C79.2354 124.11 79.1387 124.257 79.1387 124.351C79.1387 124.456 79.4814 124.869 80.167 125.59C80.8525 126.305 81.3945 126.817 81.793 127.128C82.1973 127.438 82.5957 127.594 82.9883 127.594L83.375 127.585C83.5156 127.585 83.627 127.629 83.709 127.717C83.7969 127.799 83.8408 127.925 83.8408 128.095C83.8408 128.335 83.6914 128.613 83.3926 128.93C83.0938 129.246 82.5811 129.404 81.8545 129.404C81.4268 129.404 80.9932 129.249 80.5537 128.938C80.1143 128.622 79.4404 127.913 78.5322 126.812C77.8057 125.927 77.4102 125.484 77.3457 125.484C77.3047 125.484 77.1816 125.59 76.9766 125.801C76.7715 126.012 76.6367 126.173 76.5723 126.284V126.293C76.4727 126.779 76.4229 127.415 76.4229 128.2C76.4229 128.593 76.3057 128.912 76.0713 129.158C75.8428 129.404 75.5615 129.527 75.2275 129.527C74.8818 129.527 74.6123 129.428 74.4189 129.229C74.2256 129.035 74.1289 128.839 74.1289 128.64C74.1289 128.429 74.2021 127.966 74.3486 127.251C74.6299 125.862 74.8672 124.02 75.0605 121.723C75.248 119.889 75.4121 118.459 75.5527 117.434C75.6934 116.402 75.8193 115.729 75.9307 115.412C76.042 115.09 76.2148 114.835 76.4492 114.647C76.6836 114.454 76.9355 114.357 77.2051 114.357C77.4629 114.357 77.668 114.466 77.8203 114.683C77.9785 114.894 78.0576 115.151 78.0576 115.456C78.0576 115.837 77.8115 117.325 77.3193 119.921L77.1084 121.072H77.1172C76.8594 122.766 76.7275 123.744 76.7217 124.008L79.4199 121.564C80.7969 120.234 81.8076 119.569 82.4521 119.569C83.0732 119.569 83.3838 119.818 83.3838 120.316C83.3838 120.938 83.082 121.386 82.4785 121.661Z" fill="#626365"/>
</svg>
