<svg width="122" height="103" viewBox="0 0 122 103" fill="none" xmlns="http://www.w3.org/2000/svg">
<g opacity="0.15">
<path opacity="0.15" d="M56.4995 74.6732H52.6639C52.527 74.6732 52.3958 74.6188 52.299 74.5221C52.2022 74.4253 52.1479 74.294 52.1479 74.1572V64.6671C52.1479 64.5302 52.2022 64.399 52.299 64.3022C52.3958 64.2055 52.527 64.1511 52.6639 64.1511H56.4995C56.6363 64.1511 56.7676 64.2055 56.8644 64.3022C56.9611 64.399 57.0155 64.5302 57.0155 64.6671V74.1572C57.0155 74.294 56.9611 74.4253 56.8644 74.5221C56.7676 74.6188 56.6363 74.6732 56.4995 74.6732ZM53.1799 73.6412H55.9835V65.1831H53.1799V73.6412Z" fill="#474747"/>
<path opacity="0.15" d="M54.0268 60.8537H51.3412C51.2043 60.8537 51.0731 60.7993 50.9763 60.7026C50.8796 60.6058 50.8252 60.4745 50.8252 60.3377V39.9901C50.8252 39.8532 50.8796 39.722 50.9763 39.6252C51.0731 39.5284 51.2043 39.4741 51.3412 39.4741H54.0268C54.1637 39.4741 54.2949 39.5284 54.3917 39.6252C54.4884 39.722 54.5428 39.8532 54.5428 39.9901V60.3377C54.5428 60.4745 54.4884 60.6058 54.3917 60.7026C54.2949 60.7993 54.1637 60.8537 54.0268 60.8537ZM51.8572 59.8217H53.5108V40.5061H51.8572V59.8217Z" fill="#474747"/>
<path opacity="0.15" d="M52.684 47.4712C52.4302 47.4712 52.1821 47.396 51.971 47.2549C51.76 47.1139 51.5955 46.9135 51.4984 46.679C51.4013 46.4445 51.3758 46.1865 51.4254 45.9376C51.4749 45.6886 51.5971 45.46 51.7766 45.2805C51.956 45.101 52.1847 44.9788 52.4336 44.9293C52.6826 44.8798 52.9406 44.9052 53.1751 45.0023C53.4096 45.0994 53.61 45.2639 53.751 45.475C53.892 45.686 53.9673 45.9341 53.9673 46.1879C53.9669 46.5282 53.8316 46.8544 53.591 47.095C53.3504 47.3355 53.0242 47.4709 52.684 47.4712ZM52.684 45.9366C52.6343 45.9366 52.5857 45.9514 52.5444 45.979C52.5031 46.0066 52.4709 46.0458 52.4518 46.0918C52.4328 46.1377 52.4278 46.1882 52.4375 46.2369C52.4472 46.2857 52.4712 46.3305 52.5063 46.3656C52.5414 46.4008 52.5862 46.4247 52.635 46.4344C52.6837 46.4441 52.7342 46.4391 52.7802 46.4201C52.8261 46.4011 52.8653 46.3689 52.8929 46.3275C52.9205 46.2862 52.9353 46.2376 52.9353 46.1879C52.9352 46.1213 52.9087 46.0574 52.8616 46.0103C52.8145 45.9632 52.7506 45.9367 52.684 45.9366Z" fill="#474747"/>
<path opacity="0.15" d="M52.684 53.0143C52.4302 53.0143 52.1821 52.939 51.971 52.798C51.76 52.657 51.5955 52.4566 51.4984 52.2221C51.4013 51.9876 51.3758 51.7296 51.4254 51.4806C51.4749 51.2317 51.5971 51.003 51.7766 50.8235C51.956 50.6441 52.1847 50.5219 52.4336 50.4723C52.6826 50.4228 52.9406 50.4482 53.1751 50.5454C53.4096 50.6425 53.61 50.807 53.751 51.018C53.892 51.2291 53.9673 51.4772 53.9673 51.731C53.9669 52.0712 53.8316 52.3974 53.591 52.638C53.3504 52.8786 53.0242 53.0139 52.684 53.0143ZM52.684 51.4797C52.6343 51.4797 52.5857 51.4944 52.5444 51.522C52.5031 51.5496 52.4709 51.5889 52.4518 51.6348C52.4328 51.6807 52.4278 51.7312 52.4375 51.78C52.4472 51.8287 52.4712 51.8735 52.5063 51.9087C52.5414 51.9438 52.5862 51.9677 52.635 51.9774C52.6837 51.9871 52.7342 51.9822 52.7802 51.9631C52.8261 51.9441 52.8653 51.9119 52.8929 51.8706C52.9205 51.8293 52.9353 51.7807 52.9353 51.731C52.9352 51.6643 52.9087 51.6004 52.8616 51.5533C52.8145 51.5062 52.7506 51.4797 52.684 51.4797Z" fill="#474747"/>
<path opacity="0.15" d="M114.932 75.2965H1.068C0.93115 75.2965 0.799903 75.2422 0.703134 75.1454C0.606366 75.0486 0.552002 74.9174 0.552002 74.7805C0.552002 74.6437 0.606366 74.5124 0.703134 74.4157C0.799903 74.3189 0.93115 74.2645 1.068 74.2645H114.932C115.069 74.2645 115.2 74.3189 115.297 74.4157C115.394 74.5124 115.448 74.6437 115.448 74.7805C115.448 74.9174 115.394 75.0486 115.297 75.1454C115.2 75.2422 115.069 75.2965 114.932 75.2965Z" fill="#474747"/>
<path d="M97.9942 75.2965C97.8574 75.2965 97.7261 75.2422 97.6294 75.1454C97.5326 75.0486 97.4782 74.9174 97.4782 74.7805V18.8289C97.4782 18.6921 97.5326 18.5608 97.6294 18.4641C97.7261 18.3673 97.8574 18.3129 97.9942 18.3129C98.1311 18.3129 98.2623 18.3673 98.3591 18.4641C98.4558 18.5608 98.5102 18.6921 98.5102 18.8289V74.7805C98.5102 74.9174 98.4558 75.0486 98.3591 75.1454C98.2623 75.2422 98.1311 75.2965 97.9942 75.2965Z" fill="#474747"/>
<path d="M97.9942 44.218C93.2599 44.218 89.8922 42.2526 87.9838 38.3766C82.9951 28.2382 89.8029 7.60817 93.1017 3.32451C94.5073 1.49873 96.3363 0.408588 97.9942 0.408588C99.6521 0.408588 101.481 1.49873 102.887 3.32451C106.185 7.60834 112.993 28.2385 108.004 38.3766C106.096 42.2526 102.728 44.218 97.9942 44.218ZM97.9942 1.44059C96.6543 1.44059 95.1311 2.38022 93.9194 3.95402C92.3858 5.94578 89.9254 12.0322 88.4627 18.7696C86.6911 26.9313 86.8495 33.7336 88.9099 37.9209C90.6299 41.4146 93.6855 43.186 97.9935 43.186C102.302 43.186 105.358 41.4144 107.077 37.9209C109.138 33.7329 109.297 26.9313 107.525 18.7696C106.062 12.0324 103.602 5.94595 102.068 3.95402C100.857 2.38022 99.3341 1.44059 97.9942 1.44059Z" fill="#474747"/>
<path d="M97.9942 27.9504C97.8922 27.9504 97.7924 27.9201 97.7076 27.8634C97.6228 27.8067 97.5567 27.7262 97.5176 27.6319C97.4786 27.5376 97.4683 27.4339 97.4882 27.3338C97.5081 27.2337 97.5573 27.1418 97.6294 27.0696L101.964 22.7352C102.061 22.6412 102.191 22.5892 102.327 22.5904C102.462 22.5916 102.591 22.6458 102.687 22.7415C102.783 22.8372 102.837 22.9666 102.838 23.1019C102.839 23.2372 102.787 23.3675 102.693 23.4649L98.359 27.7992C98.3112 27.8472 98.2543 27.8853 98.1917 27.9112C98.1291 27.9372 98.062 27.9505 97.9942 27.9504Z" fill="#474747"/>
<path d="M97.9942 38.0486C97.9265 38.0487 97.8593 38.0353 97.7967 38.0094C97.7341 37.9834 97.6773 37.9454 97.6294 37.8974L91.7334 32.0014C91.6394 31.9041 91.5874 31.7737 91.5886 31.6384C91.5898 31.5031 91.644 31.3737 91.7397 31.278C91.8354 31.1824 91.9648 31.1281 92.1001 31.1269C92.2354 31.1257 92.3657 31.1778 92.463 31.2717L98.3591 37.1677C98.4312 37.2399 98.4803 37.3318 98.5002 37.4319C98.5201 37.532 98.5099 37.6357 98.4709 37.73C98.4318 37.8243 98.3657 37.9049 98.2809 37.9616C98.196 38.0183 98.0963 38.0485 97.9942 38.0486Z" fill="#474747"/>
<path d="M112.294 50.3108C116.985 50.3108 120.788 46.5076 120.788 41.8162C120.788 37.1248 116.985 33.3217 112.294 33.3217C107.602 33.3217 103.799 37.1248 103.799 41.8162C103.799 46.5076 107.602 50.3108 112.294 50.3108Z" fill="white"/>
<path d="M112.294 50.8268C110.512 50.8268 108.77 50.2984 107.288 49.3083C105.806 48.3182 104.651 46.9109 103.969 45.2644C103.287 43.6179 103.108 41.8061 103.456 40.0582C103.804 38.3102 104.662 36.7047 105.922 35.4445C107.182 34.1843 108.788 33.3261 110.536 32.9784C112.284 32.6307 114.095 32.8092 115.742 33.4912C117.388 34.1733 118.796 35.3282 119.786 36.81C120.776 38.2919 121.304 40.034 121.304 41.8162C121.302 44.2051 120.351 46.4954 118.662 48.1846C116.973 49.8738 114.683 50.8241 112.294 50.8268ZM112.294 33.8375C110.716 33.8374 109.173 34.3054 107.861 35.182C106.549 36.0587 105.526 37.3048 104.922 38.7628C104.318 40.2207 104.16 41.8249 104.468 43.3727C104.776 44.9204 105.536 46.3421 106.652 47.458C107.768 48.5738 109.189 49.3337 110.737 49.6416C112.285 49.9495 113.889 49.7915 115.347 49.1876C116.805 48.5837 118.051 47.5611 118.928 46.249C119.804 44.9369 120.272 43.3943 120.272 41.8162C120.27 39.7009 119.429 37.6728 117.933 36.1771C116.437 34.6813 114.409 33.8399 112.294 33.8375Z" fill="#474747"/>
<path d="M97.9942 56.6431C97.8922 56.6431 97.7924 56.6128 97.7076 56.5561C97.6228 56.4994 97.5567 56.4188 97.5176 56.3246C97.4786 56.2303 97.4683 56.1266 97.4882 56.0265C97.5081 55.9264 97.5573 55.8345 97.6294 55.7623L113.344 40.0477C113.442 39.9537 113.572 39.9017 113.707 39.9029C113.842 39.9041 113.972 39.9583 114.068 40.054C114.163 40.1497 114.217 40.2791 114.219 40.4144C114.22 40.5497 114.168 40.68 114.074 40.7773L98.359 56.4928C98.3111 56.5406 98.2542 56.5785 98.1916 56.6043C98.129 56.6301 98.0619 56.6433 97.9942 56.6431Z" fill="#474747"/>
<path d="M114.041 47.3209H107.316C107.179 47.3209 107.048 47.2665 106.951 47.1698C106.855 47.073 106.8 46.9418 106.8 46.8049C106.8 46.668 106.855 46.5368 106.951 46.44C107.048 46.3433 107.179 46.2889 107.316 46.2889H114.041C114.178 46.2889 114.31 46.3433 114.406 46.44C114.503 46.5368 114.557 46.668 114.557 46.8049C114.557 46.9418 114.503 47.073 114.406 47.1698C114.31 47.2665 114.178 47.3209 114.041 47.3209Z" fill="#474747"/>
<path d="M110.679 43.9583C110.542 43.9583 110.411 43.9039 110.314 43.8072C110.217 43.7104 110.163 43.5791 110.163 43.4423V40.4125C110.163 40.2757 110.217 40.1444 110.314 40.0477C110.411 39.9509 110.542 39.8965 110.679 39.8965C110.816 39.8965 110.947 39.9509 111.044 40.0477C111.141 40.1444 111.195 40.2757 111.195 40.4125V43.4423C111.195 43.5791 111.141 43.7104 111.044 43.8072C110.947 43.9039 110.816 43.9583 110.679 43.9583Z" fill="#474747"/>
<path d="M97.9942 66.8732C97.9264 66.8733 97.8593 66.86 97.7967 66.834C97.7341 66.8081 97.6773 66.77 97.6294 66.722L83.5151 52.6077C83.4658 52.5601 83.4265 52.5031 83.3994 52.4402C83.3724 52.3772 83.3582 52.3095 83.3576 52.241C83.357 52.1725 83.37 52.1045 83.396 52.0411C83.4219 51.9777 83.4602 51.9201 83.5087 51.8717C83.5571 51.8232 83.6147 51.7849 83.6782 51.7589C83.7416 51.733 83.8095 51.7199 83.878 51.7205C83.9465 51.7211 84.0143 51.7354 84.0772 51.7624C84.1402 51.7895 84.1971 51.8288 84.2447 51.878L98.359 65.9924C98.4312 66.0645 98.4803 66.1565 98.5002 66.2566C98.5201 66.3566 98.5099 66.4604 98.4708 66.5546C98.4318 66.6489 98.3657 66.7295 98.2808 66.7862C98.196 66.8429 98.0963 66.8732 97.9942 66.8732Z" fill="#474747"/>
<path d="M88.2032 62.7558C87.3731 62.7502 86.5483 62.6239 85.7546 62.3809C83.4276 61.6858 81.2336 60.0933 79.5765 57.8968C76.1207 53.3156 76.1001 47.4827 79.5306 44.895C82.9612 42.3073 88.5641 43.929 92.0197 48.5103C95.4759 53.0917 95.4965 58.9244 92.066 61.5123C90.9502 62.3403 89.5925 62.7774 88.2032 62.7558ZM83.4065 44.6843C82.2376 44.6621 81.0941 45.0257 80.1527 45.7189C77.1771 47.964 77.2879 53.1483 80.4011 57.2754C81.9267 59.2976 83.933 60.7596 86.0508 61.392C88.1122 62.0076 90.0278 61.7577 91.4451 60.6886C94.4207 58.4431 94.3101 53.259 91.1967 49.1317C89.0565 46.2947 86.046 44.6843 83.4065 44.6843Z" fill="#474747"/>
<path d="M90.9886 59.8676C90.8517 59.8676 90.7205 59.8132 90.6237 59.7165C90.527 59.6197 90.4726 59.4885 90.4726 59.3516V54.7964C90.4726 54.6595 90.527 54.5283 90.6237 54.4315C90.7205 54.3347 90.8517 54.2804 90.9886 54.2804C91.1254 54.2804 91.2567 54.3347 91.3534 54.4315C91.4502 54.5283 91.5046 54.6595 91.5046 54.7964V59.3516C91.5046 59.4885 91.4502 59.6197 91.3534 59.7165C91.2567 59.8132 91.1254 59.8676 90.9886 59.8676Z" fill="#474747"/>
<path d="M87.3732 56.252H83.8798C83.743 56.252 83.6117 56.1976 83.515 56.1009C83.4182 56.0041 83.3638 55.8728 83.3638 55.736C83.3638 55.5991 83.4182 55.4679 83.515 55.3711C83.6117 55.2744 83.743 55.22 83.8798 55.22H87.3732C87.51 55.22 87.6413 55.2744 87.738 55.3711C87.8348 55.4679 87.8892 55.5991 87.8892 55.736C87.8892 55.8728 87.8348 56.0041 87.738 56.1009C87.6413 56.1976 87.51 56.252 87.3732 56.252Z" fill="#474747"/>
<path d="M16.8361 74.6732H13.0005C12.8636 74.6732 12.7324 74.6188 12.6356 74.5221C12.5388 74.4253 12.4845 74.2941 12.4845 74.1572V64.6671C12.4845 64.5302 12.5388 64.399 12.6356 64.3022C12.7324 64.2055 12.8636 64.1511 13.0005 64.1511H16.8361C16.9729 64.1511 17.1042 64.2055 17.2009 64.3022C17.2977 64.399 17.3521 64.5302 17.3521 64.6671V74.1572C17.3521 74.2941 17.2977 74.4253 17.2009 74.5221C17.1042 74.6188 16.9729 74.6732 16.8361 74.6732ZM13.5165 73.6412H16.3201V65.1831H13.5165V73.6412Z" fill="#474747"/>
<path d="M18.1579 60.8537H15.4725C15.3356 60.8537 15.2044 60.7993 15.1076 60.7026C15.0108 60.6058 14.9565 60.4746 14.9565 60.3377V39.9901C14.9565 39.8532 15.0108 39.722 15.1076 39.6252C15.2044 39.5285 15.3356 39.4741 15.4725 39.4741H18.1579C18.2948 39.4741 18.426 39.5285 18.5228 39.6252C18.6195 39.722 18.6739 39.8532 18.6739 39.9901V60.3377C18.6739 60.4746 18.6195 60.6058 18.5228 60.7026C18.426 60.7993 18.2948 60.8537 18.1579 60.8537ZM15.9885 59.8217H17.6419V40.5061H15.9885V59.8217Z" fill="#474747"/>
<path d="M60.4175 43.0993H6.71033V48.8536H60.4175V43.0993Z" fill="white"/>
<path d="M60.4177 49.3698H6.7096C6.57275 49.3698 6.4415 49.3154 6.34474 49.2186C6.24797 49.1219 6.1936 48.9906 6.1936 48.8538V43.0993C6.1936 42.9625 6.24797 42.8312 6.34474 42.7345C6.4415 42.6377 6.57275 42.5833 6.7096 42.5833H60.4177C60.5545 42.5833 60.6857 42.6377 60.7825 42.7345C60.8793 42.8312 60.9337 42.9625 60.9337 43.0993V48.8538C60.9337 48.9906 60.8793 49.1219 60.7825 49.2186C60.6857 49.3154 60.5545 49.3698 60.4177 49.3698ZM7.22629 48.3378H59.9016V43.6153H7.2256L7.22629 48.3378Z" fill="#474747"/>
<path d="M60.4175 48.8538H6.71033V54.608H60.4175V48.8538Z" fill="white"/>
<path d="M60.4177 55.124H6.7096C6.57275 55.124 6.4415 55.0697 6.34474 54.9729C6.24797 54.8761 6.1936 54.7449 6.1936 54.608V48.8538C6.1936 48.7169 6.24797 48.5857 6.34474 48.4889C6.4415 48.3921 6.57275 48.3378 6.7096 48.3378H60.4177C60.5545 48.3378 60.6857 48.3921 60.7825 48.4889C60.8793 48.5857 60.9337 48.7169 60.9337 48.8538V54.608C60.9337 54.7449 60.8793 54.8761 60.7825 54.9729C60.6857 55.0697 60.5545 55.124 60.4177 55.124ZM7.22629 54.092H59.9016V49.3698H7.2256L7.22629 54.092Z" fill="#474747"/>
<path d="M16.8152 47.4712C16.5614 47.4712 16.3133 47.396 16.1023 47.255C15.8913 47.1139 15.7268 46.9135 15.6296 46.679C15.5325 46.4445 15.5071 46.1865 15.5566 45.9376C15.6061 45.6886 15.7283 45.46 15.9078 45.2805C16.0873 45.101 16.316 44.9788 16.5649 44.9293C16.8138 44.8798 17.0719 44.9052 17.3063 45.0023C17.5408 45.0995 17.7413 45.2639 17.8823 45.475C18.0233 45.686 18.0985 45.9341 18.0985 46.1879C18.0982 46.5282 17.9629 46.8544 17.7223 47.095C17.4817 47.3355 17.1555 47.4709 16.8152 47.4712ZM16.8152 45.9366C16.7655 45.9366 16.717 45.9514 16.6756 45.979C16.6343 46.0066 16.6021 46.0459 16.5831 46.0918C16.5641 46.1377 16.5591 46.1882 16.5688 46.237C16.5785 46.2857 16.6024 46.3305 16.6376 46.3656C16.6727 46.4008 16.7175 46.4247 16.7662 46.4344C16.815 46.4441 16.8655 46.4391 16.9114 46.4201C16.9573 46.4011 16.9966 46.3689 17.0242 46.3275C17.0518 46.2862 17.0665 46.2376 17.0665 46.1879C17.0665 46.1213 17.0399 46.0575 16.9928 46.0103C16.9457 45.9632 16.8819 45.9367 16.8152 45.9366Z" fill="#474747"/>
<path d="M16.8152 53.0143C16.5614 53.0143 16.3133 52.939 16.1023 52.798C15.8913 52.657 15.7268 52.4566 15.6296 52.2221C15.5325 51.9876 15.5071 51.7296 15.5566 51.4806C15.6061 51.2317 15.7283 51.003 15.9078 50.8236C16.0873 50.6441 16.316 50.5219 16.5649 50.4723C16.8138 50.4228 17.0719 50.4482 17.3063 50.5454C17.5408 50.6425 17.7413 50.807 17.8823 51.018C18.0233 51.2291 18.0985 51.4772 18.0985 51.731C18.0982 52.0712 17.9629 52.3974 17.7223 52.638C17.4817 52.8786 17.1555 53.0139 16.8152 53.0143ZM16.8152 51.4797C16.7655 51.4797 16.717 51.4944 16.6756 51.522C16.6343 51.5497 16.6021 51.5889 16.5831 51.6348C16.5641 51.6807 16.5591 51.7313 16.5688 51.78C16.5785 51.8287 16.6024 51.8735 16.6376 51.9087C16.6727 51.9438 16.7175 51.9678 16.7662 51.9775C16.815 51.9871 16.8655 51.9822 16.9114 51.9631C16.9573 51.9441 16.9966 51.9119 17.0242 51.8706C17.0518 51.8293 17.0665 51.7807 17.0665 51.731C17.0665 51.6644 17.04 51.6005 16.9929 51.5533C16.9458 51.5062 16.8819 51.4797 16.8152 51.4797Z" fill="#474747"/>
<path d="M64.7557 65.1831H3.95127C3.81442 65.1831 3.68317 65.1287 3.5864 65.032C3.48964 64.9352 3.43527 64.8039 3.43527 64.6671V60.3377C3.43527 60.2008 3.48964 60.0696 3.5864 59.9728C3.68317 59.876 3.81442 59.8217 3.95127 59.8217H64.7557C64.8925 59.8217 65.0238 59.876 65.1205 59.9728C65.2173 60.0696 65.2717 60.2008 65.2717 60.3377V64.6671C65.2717 64.8039 65.2173 64.9352 65.1205 65.032C65.0238 65.1287 64.8925 65.1831 64.7557 65.1831ZM4.46727 64.1511H64.2397V60.8537H4.46727V64.1511Z" fill="#474747"/>
</g>
<path d="M44.584 68.5706L45.2648 73.4938C45.3666 74.2301 46.056 74.7804 46.8761 74.7804H68.922C69.7428 74.7804 70.4314 74.23 70.5333 73.4938L71.2141 68.5706H44.584Z" fill="#D6D6D4"/>
<path d="M68.4471 74.7804L70.0518 74.3657L71.2141 68.5706H44.584L44.8456 70.4626H66.8616C70.004 70.4628 68.4471 74.7804 68.4471 74.7804Z" fill="#BABABA"/>
<path d="M73.8828 66.905L79.8956 18.8293H35.9014L41.9147 66.905C41.9763 67.3691 42.2055 67.7947 42.5592 68.1015C42.9129 68.4084 43.3666 68.5752 43.8348 68.5706H71.9628C72.431 68.5752 72.8847 68.4084 73.2383 68.1015C73.592 67.7947 73.8212 67.3691 73.8828 66.905Z" fill="#5EB173"/>
<path d="M73.8828 66.905L79.8956 18.8293H35.9014L41.9147 66.905C41.9763 67.3691 42.2055 67.7947 42.5592 68.1015C42.9129 68.4084 43.3666 68.5752 43.8348 68.5706H71.9628C72.431 68.5752 72.8847 68.4084 73.2383 68.1015C73.592 67.7947 73.8212 67.3691 73.8828 66.905Z" fill="#5EB173"/>
<g style="mix-blend-mode:multiply" opacity="0.34">
<path d="M56.6756 58.1773C56.3577 58.1722 56.0509 58.0602 55.8044 57.8593C55.6049 57.6752 55.4461 57.4513 55.3382 57.2021C55.2304 56.9529 55.1759 56.6838 55.1783 56.4123C55.157 56.0524 55.2109 55.692 55.3364 55.354C55.462 55.016 55.6566 54.7079 55.9078 54.4493C56.0387 54.3239 56.4365 53.9417 56.9548 53.9417C57.0086 53.9417 57.0624 53.9459 57.1156 53.9542C57.3013 53.9937 57.4768 54.0714 57.6308 54.1824C57.7848 54.2935 57.9139 54.4355 58.01 54.5992C58.1961 54.8927 58.3218 55.2202 58.38 55.5628C58.4381 55.9054 58.4274 56.2561 58.3485 56.5944C58.1572 57.3438 57.5194 58.1533 56.7145 58.1768L56.6756 58.1773ZM56.8459 55.8115C56.6964 56.1687 56.7306 56.4011 56.7735 56.4403C56.7783 56.4443 56.7834 56.4478 56.7888 56.4508C56.8269 56.4046 56.8557 56.3514 56.8737 56.2943C56.9191 56.1347 56.909 55.9645 56.845 55.8115H56.8459Z" fill="#60A06C"/>
</g>
<g style="mix-blend-mode:multiply" opacity="0.34">
<path d="M58.6743 60.3089C58.4526 60.3109 58.2355 60.2467 58.0506 60.1246C57.6655 59.8666 57.694 59.5267 57.8003 58.2659C57.8676 57.4677 57.9692 56.2614 58.0547 54.3605C58.0591 54.2635 58.0648 54.1668 58.0719 54.0703H58.0391C57.9985 54.0703 57.9594 54.0721 57.9218 54.0757C57.7852 54.0884 57.6483 54.0939 57.5114 54.0991C57.3628 54.1049 57.2224 54.1104 57.0851 54.1259C57.0277 54.1324 56.9768 54.1388 56.9319 54.1445C56.8461 54.1576 56.7596 54.1654 56.6729 54.1679C56.6039 54.1708 56.535 54.1592 56.4708 54.1339C56.4065 54.1086 56.3483 54.0701 56.2998 54.021C55.9456 53.6519 56.3342 52.881 56.6324 52.5886C56.7628 52.4696 56.9156 52.3779 57.0818 52.3186C57.2481 52.2593 57.4244 52.2337 57.6006 52.2433C57.8672 52.2485 58.1323 52.2848 58.3905 52.3515C58.5296 51.8804 58.8144 51.4655 59.204 51.1663C59.4986 50.9454 59.8539 50.8204 60.2219 50.808C60.291 50.808 60.36 50.8131 60.4283 50.8232C60.6921 50.8547 60.9382 50.9718 61.129 51.1567C61.3454 51.3826 61.4646 51.6844 61.461 51.9972C61.606 51.9462 61.7585 51.9197 61.9122 51.919C61.9739 51.919 62.0356 51.9236 62.0967 51.9327C62.335 51.9614 62.5573 52.0674 62.7297 52.2344C62.858 52.3777 62.9497 52.5499 62.9968 52.7364C63.0439 52.9229 63.045 53.1181 63.0001 53.3051L62.9325 53.5989C62.9856 53.577 63.0342 53.5454 63.0759 53.5058C63.193 53.374 63.2585 53.2043 63.2603 53.028L63.3205 52.3213L64.2049 53.1484L64.2328 53.204C64.3876 53.5136 64.2833 53.9143 63.9314 54.3622C63.6734 54.6919 63.1769 54.8522 62.4149 54.8522C62.1641 54.851 61.9135 54.8365 61.6641 54.8089C61.5993 55.3985 61.5719 55.9917 61.5819 56.5848C61.591 56.935 61.6015 57.2473 61.6108 57.5263C61.6624 59.0518 61.683 59.6832 61.191 60.0441C61.0105 60.1734 60.7938 60.2424 60.5718 60.2412C60.3706 60.2429 60.1735 60.1846 60.0057 60.0736C59.9232 60.0234 59.8542 59.9538 59.8044 59.8711C59.7547 59.7883 59.7257 59.6947 59.72 59.5982C59.6541 59.7963 59.5277 59.9687 59.3588 60.0914C59.1594 60.2344 58.9197 60.3106 58.6743 60.3089ZM59.8439 54.4534C59.7675 55.3134 59.7873 56.1331 59.7874 56.1426C59.7978 56.5463 59.81 56.9068 59.8206 57.2288C59.8249 57.361 59.8294 57.4868 59.833 57.6085C59.882 56.9721 59.9378 56.1403 59.9878 55.0404C59.9962 54.854 60.0095 54.6737 60.0274 54.5014C59.9661 54.4854 59.9051 54.4695 59.8445 54.4534H59.8439ZM62.051 53.5965C62.2214 53.6352 62.3954 53.6563 62.5702 53.6594C62.622 53.6596 62.6736 53.6567 62.725 53.6506L62.5014 53.5315C62.4419 53.498 62.3751 53.4795 62.3069 53.4776C62.2918 53.4776 62.2767 53.4788 62.2618 53.4811C62.1841 53.5034 62.1123 53.5428 62.0516 53.5965H62.051ZM60.3777 53.0423C60.4624 52.8471 60.5749 52.6652 60.7116 52.5022C60.7004 52.5022 60.6896 52.5008 60.6786 52.5008C60.6565 52.5008 60.6345 52.5027 60.6127 52.5063C60.482 52.5444 60.3649 52.619 60.2752 52.7215C60.2184 52.7899 60.173 52.8671 60.1411 52.9501L60.3777 53.0423Z" fill="#60A06C"/>
</g>
<g style="mix-blend-mode:multiply" opacity="0.34">
<path d="M62.559 58.6007C62.2067 58.6161 61.8627 58.4913 61.6022 58.2536C61.2713 57.9225 61.1634 57.3313 61.3062 56.6319C61.461 55.8727 61.9643 54.8562 62.8714 54.4905C63.1102 54.3963 63.3639 54.3459 63.6206 54.3416C63.9216 54.332 64.2158 54.4322 64.4483 54.6237C64.6369 54.8009 64.7728 55.027 64.8408 55.2768C64.9087 55.5266 64.9062 55.7903 64.8334 56.0387C64.7701 56.2446 64.6632 56.4345 64.5199 56.5954C64.3766 56.7563 64.2004 56.8845 64.0031 56.9711C64.0569 57.0389 64.0896 57.121 64.0972 57.2071C64.1011 57.3866 64.0681 57.5649 64.0003 57.7311C63.9325 57.8973 63.8313 58.0479 63.703 58.1734C63.3899 58.4562 62.9808 58.609 62.559 58.6007ZM63.4352 55.7066C63.3745 55.7313 63.3175 55.7642 63.2658 55.8045C63.3248 55.7765 63.3815 55.7438 63.4352 55.7066Z" fill="#60A06C"/>
</g>
<g style="mix-blend-mode:multiply" opacity="0.34">
<path d="M65.3272 58.6715C64.9485 58.6814 64.5811 58.542 64.3043 58.2833C63.9775 57.9479 63.8673 57.3824 64.0016 56.7317C64.1736 55.8994 64.6869 55.1949 65.3102 54.937C65.5384 54.8454 65.7818 54.7976 66.0278 54.7963C66.1987 54.7874 66.3696 54.8158 66.5284 54.8795C66.6873 54.9431 66.8305 55.0406 66.948 55.1651C67.3319 55.6017 67.1926 56.2026 67.141 56.3763C67.0346 56.7195 66.8093 57.0134 66.5056 57.2052C66.5708 57.2779 66.6097 57.3705 66.616 57.468C66.6193 57.6335 66.5877 57.7978 66.5233 57.9502C66.4588 58.1027 66.363 58.2398 66.2421 58.3528C65.9872 58.5687 65.6611 58.6823 65.3272 58.6715Z" fill="#60A06C"/>
</g>
<g style="mix-blend-mode:multiply" opacity="0.34">
<path d="M52.7387 60.0396C52.4699 60.0402 52.2025 60.0011 51.9451 59.9235C51.093 59.6641 50.4055 58.9617 50.0089 57.9455C49.5801 56.8468 49.7087 55.4534 50.3331 54.2011C50.0883 54.2636 49.8565 54.3692 49.6487 54.5129C49.4681 54.6516 49.2528 54.7377 49.0264 54.762C48.9104 54.7625 48.7973 54.7252 48.7044 54.6557C48.5075 54.5086 48.4094 54.2319 48.4292 53.8765C48.4514 53.4716 48.6399 52.9027 49.0988 52.6323C49.2811 52.5282 49.4882 52.4753 49.6981 52.4794C50.1475 52.4794 50.6604 52.6818 51.1955 52.9305C51.6609 52.3902 52.2614 51.9832 52.9356 51.7509C53.254 51.6458 53.5863 51.5893 53.9215 51.5833C54.1123 51.5699 54.3037 51.5984 54.4823 51.6668C54.6609 51.7351 54.8224 51.8416 54.9556 51.9788C55.4682 52.5592 55.2356 53.6104 54.6976 54.2277C54.4386 54.525 53.952 54.8896 53.1056 54.9391C53.0596 54.9419 53.0151 54.9433 52.9716 54.9433C52.6592 54.9334 52.35 54.8781 52.0536 54.779C51.9757 54.757 51.9016 54.7341 51.83 54.7102C51.4968 55.8635 51.6496 57.0938 52.2162 57.5654C52.4342 57.7476 52.7063 57.8526 52.9901 57.8642C53.0559 57.8643 53.1215 57.8568 53.1855 57.8416C53.205 57.8372 53.6603 57.7243 53.7585 57.36C53.7826 57.2731 53.7868 57.1819 53.7707 57.0931C53.7547 57.0044 53.7188 56.9204 53.6658 56.8475C53.5916 56.771 53.4997 56.7142 53.3981 56.682C53.296 56.6404 53.0239 56.5301 53.0486 56.2391C53.0763 55.9097 53.4874 55.7597 53.857 55.7597C53.959 55.7593 54.0606 55.7718 54.1594 55.7967C54.9559 56.0021 55.5315 57.1254 55.3438 58.1082C55.211 58.6913 54.8571 59.2001 54.3567 59.5276C53.8832 59.8622 53.3174 60.0413 52.7377 60.0399L52.7387 60.0396ZM52.4014 53.538C52.5483 53.6319 52.7166 53.6871 52.8906 53.6985C52.9222 53.6984 52.9539 53.6964 52.9853 53.6925C53.2819 53.6564 53.6274 53.4792 53.7141 53.2109C53.7522 53.1155 53.7544 53.0097 53.7205 52.9128C53.6787 52.8906 53.6311 52.8815 53.5841 52.8867C53.3612 52.901 53.144 52.9627 52.9468 53.0674L52.922 53.0808C52.7197 53.1971 52.5427 53.3527 52.4014 53.5384V53.538Z" fill="#60A06C"/>
</g>
<path d="M35.9014 18.8293L36.3743 22.6104H72.9693C73.2989 22.6103 73.6248 22.6804 73.9253 22.816C74.2257 22.9515 74.4939 23.1494 74.7121 23.3965C74.9302 23.6436 75.0934 23.9342 75.1906 24.2492C75.2879 24.5641 75.317 24.8961 75.2762 25.2232L71.4614 64.7798C71.3902 65.5179 71.0796 66.2125 70.5769 66.7576C70.0742 67.3028 69.407 67.6686 68.6771 67.7992L64.369 68.5701L70.4956 68.5742L70.4968 68.5701H71.9628C72.431 68.5747 72.8847 68.4078 73.2383 68.101C73.592 67.7942 73.8212 67.3686 73.8828 66.9045L79.8956 18.8293H35.9014Z" fill="#60A06C"/>
<path d="M68.922 75.2965H46.8756C45.8021 75.2965 44.8898 74.5518 44.7533 73.5645L44.0725 68.6413C44.0624 68.5683 44.0681 68.4939 44.0891 68.4232C44.1102 68.3525 44.1462 68.2871 44.1947 68.2315C44.2432 68.1759 44.303 68.1314 44.3702 68.1009C44.4373 68.0703 44.5103 68.0546 44.584 68.0546H71.2141C71.2878 68.0546 71.3607 68.0704 71.4278 68.101C71.495 68.1315 71.5548 68.1761 71.6032 68.2317C71.6516 68.2873 71.6876 68.3526 71.7087 68.4233C71.7297 68.4939 71.7354 68.5683 71.7253 68.6413L71.0445 73.5645C70.9078 74.5518 69.9953 75.2965 68.922 75.2965ZM45.1759 69.0873L45.7755 73.4238C45.8419 73.9035 46.3149 74.2652 46.8763 74.2652H68.922C69.4829 74.2652 69.9559 73.904 70.0228 73.4238L70.6224 69.0873H45.1759Z" fill="#474747"/>
<path d="M71.9628 69.0866H43.8348C43.2412 69.0898 42.6668 68.8765 42.2192 68.4867C41.7716 68.0969 41.4813 67.5573 41.4029 66.9689L35.3894 18.8936C35.3803 18.821 35.3868 18.7473 35.4084 18.6774C35.43 18.6075 35.4662 18.5429 35.5146 18.4881C35.563 18.4332 35.6225 18.3893 35.6892 18.3592C35.7559 18.3292 35.8283 18.3136 35.9014 18.3136H79.8956C79.9688 18.3136 80.0411 18.3292 80.1077 18.3593C80.1744 18.3894 80.2339 18.4333 80.2823 18.4882C80.3307 18.543 80.3669 18.6075 80.3885 18.6774C80.4101 18.7473 80.4165 18.821 80.4075 18.8936L74.3942 66.9693C74.3156 67.5575 74.0254 68.0969 73.5779 68.4866C73.1304 68.8763 72.5562 69.0896 71.9628 69.0866ZM36.4859 19.3453L42.4268 66.8408C42.4738 67.1797 42.6426 67.4899 42.9018 67.7133C43.1609 67.9367 43.4926 68.0581 43.8348 68.0546H71.9628C72.3049 68.0581 72.6366 67.9368 72.8958 67.7134C73.155 67.4899 73.3238 67.1797 73.3708 66.8408L73.8828 66.9048L73.3708 66.8408L79.3117 19.3453H36.4859Z" fill="#474747"/>
<path d="M80.843 18.8293H34.9546C33.4599 18.8429 33.6656 18.0405 34.1835 16.5001C34.4921 15.5945 34.4921 14.6122 34.1835 13.7066C33.6658 12.1663 33.4599 11.364 34.9546 11.3775H80.843C82.3376 11.364 82.1318 12.1662 81.614 13.7066C81.3055 14.6122 81.3055 15.5945 81.614 16.5001C82.1316 18.0405 82.338 18.8429 80.843 18.8293Z" fill="#646464"/>
<path d="M81.6141 13.7066C81.9484 12.7119 82.1519 12.0256 81.8523 11.6674C81.7878 11.8939 81.7059 12.1436 81.6141 12.4173C81.3911 13.0734 81.329 13.7735 81.4329 14.4586C81.4706 14.203 81.5312 13.9513 81.6141 13.7066Z" fill="#7C7C7C"/>
<path d="M34.3646 14.4586C34.4686 13.7735 34.4065 13.0734 34.1835 12.4173C34.0917 12.1436 34.0098 11.8939 33.9453 11.6674C33.6457 12.0256 33.8492 12.7119 34.1835 13.7066C34.2662 13.9513 34.3269 14.203 34.3646 14.4586Z" fill="#7C7C7C"/>
<path d="M81.8523 17.25C81.6879 17.4466 81.3726 17.5446 80.843 17.5398H34.9546C34.425 17.5446 34.1097 17.4464 33.9453 17.25C33.6465 18.2992 33.7253 18.8403 34.9546 18.8293H80.843C82.0723 18.8405 82.1511 18.2992 81.8523 17.25Z" fill="#7C7C7C"/>
<g style="mix-blend-mode:overlay">
<g style="mix-blend-mode:overlay">
<path d="M81.6141 16.5C81.5858 16.4177 81.5624 16.3341 81.5403 16.2505C81.3169 17.062 81.3352 17.921 81.5927 18.7223C82.2329 18.4576 82.0189 17.7044 81.6141 16.5Z" fill="#646464"/>
</g>
<g style="mix-blend-mode:overlay">
<path d="M34.4123 15.4099C34.591 15.3361 35.257 13.6719 36.2871 13.6719H79.8956C81.1409 13.6719 81.3612 16.1767 81.5398 16.2505C81.5475 16.2268 81.6053 13.7305 81.6136 13.7066C82.1318 12.165 82.3375 11.3626 80.8396 11.3775H35.0016C33.4561 11.3467 33.66 12.1498 34.184 13.7059C34.1918 13.7305 34.4047 15.3862 34.4123 15.4099Z" fill="#646464"/>
</g>
<g style="mix-blend-mode:overlay">
<path d="M34.2048 18.7216C34.4624 17.9203 34.4806 17.0613 34.2573 16.2498C34.2342 16.3334 34.2117 16.417 34.1837 16.4994C33.7786 17.7044 33.5646 18.4576 34.2048 18.7216Z" fill="#646464"/>
</g>
</g>
<path d="M34.9081 19.3454C34.4599 19.3454 33.8443 19.2823 33.5038 18.8134C33.065 18.2083 33.3567 17.3404 33.6945 16.3356C33.9652 15.5371 33.9652 14.6716 33.6945 13.8731C33.356 12.8662 33.0643 11.9983 33.5031 11.3932C33.8555 10.908 34.507 10.8559 34.9585 10.8614H80.843C81.2978 10.8566 81.9414 10.9078 82.2936 11.3932C82.7326 11.9983 82.4409 12.8662 82.1031 13.871C81.8324 14.6696 81.8324 15.535 82.1031 16.3335C82.4417 17.3404 82.7335 18.2083 82.2945 18.8133C81.9429 19.2978 81.2948 19.3533 80.8415 19.3453H34.9081V19.3454ZM34.9228 11.8932C34.5074 11.8932 34.361 11.9694 34.3392 11.9995C34.2126 12.1737 34.5234 13.0981 34.6727 13.5422C35.0158 14.5553 35.0158 15.6532 34.6727 16.6664C34.5241 17.1086 34.2133 18.0329 34.3399 18.2071C34.3622 18.2379 34.5119 18.3195 34.9505 18.3133H80.8796C81.2909 18.3133 81.4374 18.2371 81.4593 18.207C81.5857 18.0327 81.2749 17.1086 81.1254 16.6643C80.7823 15.6512 80.7823 14.5532 81.1254 13.5401C81.2742 13.0979 81.5848 12.1736 81.4584 11.9993C81.4361 11.9684 81.2825 11.8872 80.8476 11.8932H34.9228Z" fill="#474747"/>
<path d="M79.5112 11.3772H36.2864L36.7095 9.8691C37.3846 7.46316 39.6839 5.78839 42.3119 5.78839H73.4857C76.1137 5.78839 78.413 7.46316 79.0881 9.8691L79.5112 11.3772Z" fill="#D6D6D4"/>
<path d="M79.5112 11.3772H36.2864L36.7095 9.8691C37.3846 7.46316 39.6839 5.78839 42.3119 5.78839H73.4857C76.1137 5.78839 78.413 7.46316 79.0881 9.8691L79.5112 11.3772Z" fill="#D6D6D4"/>
<path d="M45.357 7.56964L74.852 7.5607C76.9848 7.5607 78.2987 9.09683 78.8856 9.28482C77.8448 7.72186 75.5144 5.78875 73.4857 5.78875H42.3119C39.6839 5.78875 37.3846 7.46352 36.7095 9.86945L36.2864 11.3775H40.036C40.9397 9.38888 43.0176 7.56964 45.357 7.56964Z" fill="white"/>
<path d="M79.5114 11.8932H36.2864C36.2067 11.8932 36.1282 11.8748 36.0568 11.8393C35.9855 11.8039 35.9233 11.7524 35.8752 11.689C35.827 11.6255 35.7943 11.5517 35.7794 11.4735C35.7645 11.3952 35.768 11.3146 35.7895 11.2379L36.2126 9.72979C36.9491 7.10558 39.4572 5.27258 42.3119 5.27258H73.4857C76.3409 5.27258 78.8486 7.10558 79.585 9.72979L80.0081 11.2379C80.0296 11.3146 80.0331 11.3952 80.0182 11.4734C80.0033 11.5517 79.9706 11.6254 79.9225 11.6889C79.8744 11.7524 79.8122 11.8038 79.7409 11.8393C79.6696 11.8747 79.591 11.8932 79.5114 11.8932ZM36.9672 10.8612H78.8306L78.5913 10.0086C77.9793 7.82781 75.8799 6.30458 73.4857 6.30458H42.3119C39.9177 6.30458 37.8182 7.82781 37.2064 10.0086L36.9672 10.8612Z" fill="#474747"/>
<path d="M61.5121 2.37335H68.6845C69.298 2.37335 69.8864 2.61702 70.3203 3.05078C70.7542 3.48454 70.998 4.07287 70.9982 4.68639V5.78805H59.199V4.68639C59.1992 4.07299 59.443 3.48476 59.8767 3.05102C60.3105 2.61728 60.8987 2.37353 61.5121 2.37335Z" fill="#D6D6D4"/>
<path d="M61.5121 2.37335H68.6845C69.298 2.37335 69.8864 2.61702 70.3203 3.05078C70.7542 3.48454 70.998 4.07287 70.9982 4.68639V5.78805H59.199V4.68639C59.1992 4.07299 59.443 3.48476 59.8767 3.05102C60.3105 2.61728 60.8987 2.37353 61.5121 2.37335Z" fill="#D6D6D4"/>
<path d="M59.2183 5.75177C59.2183 5.1671 59.4505 4.60637 59.864 4.19294C60.2774 3.77951 60.8381 3.54725 61.4228 3.54725H68.8136C69.3493 3.54751 69.8666 3.74293 70.2686 4.09696C70.6707 4.45098 70.93 4.93936 70.998 5.47073V4.57787C70.998 3.99319 70.7658 3.43246 70.3523 3.01904C69.9389 2.60561 69.3782 2.37335 68.7935 2.37335H61.403C61.1135 2.37333 60.8268 2.43033 60.5593 2.54111C60.2919 2.65188 60.0488 2.81426 59.8441 3.01897C59.6394 3.22368 59.477 3.46672 59.3662 3.7342C59.2554 4.00167 59.1983 4.28835 59.1983 4.57787V5.78875H59.2183V5.75177Z" fill="white"/>
<path d="M56.4993 46.174C54.6721 46.174 51.3804 44.884 50.3176 41.4239C49.8122 39.9956 49.6533 38.4676 49.8541 36.9658C50.055 35.4641 50.6098 34.0315 51.4728 32.7862C52.7421 30.9668 54.4785 29.9233 56.2363 29.9233C56.7792 29.9243 57.3175 30.0229 57.8256 30.2141L57.8509 30.2237L57.8746 30.237C58.2403 30.4434 58.4491 30.6857 58.5129 30.9775C58.6216 31.4744 58.2845 31.9415 57.8576 32.533C57.0012 33.7198 55.828 35.345 56.9804 38.3449C58.3165 41.8215 58.3239 45.1196 57.495 45.9052C57.3068 46.0837 56.9718 46.174 56.4993 46.174Z" fill="#60A06C"/>
<path d="M70.9982 6.30474H59.199C59.0622 6.30474 58.9309 6.25037 58.8341 6.15361C58.7374 6.05684 58.683 5.92559 58.683 5.78874V4.68794C58.6839 3.93771 58.9823 3.21845 59.5128 2.68796C60.0433 2.15746 60.7625 1.85905 61.5128 1.85818H68.6851C69.435 1.85923 70.1538 2.15751 70.6841 2.68765C71.2144 3.21779 71.5129 3.93655 71.5142 4.68639V5.78719C71.5144 5.85508 71.5012 5.92235 71.4754 5.98513C71.4495 6.04792 71.4116 6.10498 71.3636 6.15306C71.3157 6.20114 71.2587 6.23929 71.196 6.26532C71.1333 6.29134 71.0661 6.30474 70.9982 6.30474ZM59.715 5.27274H70.4822V4.68794C70.4817 4.2113 70.2921 3.75432 69.9551 3.41729C69.6181 3.08026 69.1611 2.89069 68.6845 2.89019H61.5121C61.0357 2.89069 60.579 3.08004 60.242 3.41674C59.905 3.75344 59.7152 4.21002 59.7143 4.68639L59.715 5.27274Z" fill="#474747"/>
<path d="M61.229 46.1288C60.9099 46.134 60.593 46.074 60.2979 45.9524C60.0028 45.8308 59.7356 45.6503 59.5128 45.4218C59.3321 45.2321 59.1927 45.0069 59.1034 44.7605C59.0141 44.5142 58.9768 44.2519 58.994 43.9905C59.0848 42.6179 58.6165 41.305 58.1636 40.0357C57.7508 38.8781 57.3607 37.7849 57.3581 36.6464C57.3481 32.4556 60.1593 31.1276 60.5057 30.9797C60.7334 30.8449 60.9938 30.7754 61.2584 30.7788C62.3764 30.7788 63.7472 31.8796 64.75 33.5814C65.6236 35.0803 66.0888 36.7821 66.099 38.517C66.1092 40.2519 65.6642 41.9592 64.8083 43.4683C63.8713 45.1592 62.5665 46.1288 61.2286 46.1288H61.229Z" fill="#60A06C"/>
<path d="M57.8772 30.0204C59.9054 31.167 54.7667 32.5789 56.8318 37.9524C58.2422 41.6219 58.0358 44.5665 57.4307 45.1392C56.8256 45.712 52.1085 45.028 50.8157 40.7981C48.6823 34.9992 53.3216 28.3204 57.8772 30.0204Z" fill="#F6F9E4"/>
<path d="M60.8353 30.7712C60.8353 30.7712 57.8641 31.9425 57.8741 36.1294C57.8796 38.4701 59.6863 40.8179 59.5095 43.4971C59.3867 45.358 62.5733 46.5864 64.68 42.7854C68.3921 36.0876 62.8901 29.4735 60.8353 30.7712Z" fill="#F6F9E4"/>
<path d="M55.9732 54.3536C55.1802 55.1146 55.1427 56.6705 55.8495 57.2491C56.0417 57.4055 56.2822 57.4903 56.5299 57.4891C57.1835 57.4698 57.6906 56.7575 57.8416 56.1646C58.0781 55.2372 57.5785 54.059 56.8889 53.9498C56.4637 53.8827 56.0908 54.2411 55.9732 54.3536ZM57.0249 56.0661C57.0069 56.1177 56.8973 56.4237 56.6662 56.4558C56.6121 56.4595 56.5579 56.452 56.5068 56.4339C56.4557 56.4159 56.4089 56.3876 56.3691 56.3507C56.1606 56.1615 56.1739 55.7262 56.3877 55.2618C56.5203 55.0509 56.6209 55.0093 56.6909 55.0143C56.9295 55.0308 57.1839 55.6204 57.0249 56.0661Z" fill="#F6F9E4"/>
<path d="M58.0705 59.4949C57.7035 59.2484 58.0162 58.7083 58.2253 54.032C58.2833 52.742 58.554 51.5705 59.2269 51.1052C59.5048 50.8899 59.854 50.7878 60.2042 50.8196C60.3944 50.8401 60.5726 50.9228 60.7111 51.0548C61.0338 51.3803 60.9292 51.8739 60.9175 51.9221C60.7551 51.8313 60.5675 51.7965 60.3834 51.823C60.1765 51.8727 59.9899 51.985 59.8492 52.1446C59.1956 52.8562 59.2706 55.8074 59.2706 55.8074C59.3337 58.2604 59.4598 59.1196 58.9813 59.471C58.8486 59.5641 58.6915 59.6161 58.5295 59.6203C58.3675 59.6246 58.2078 59.5809 58.0705 59.4949Z" fill="#F6F9E4"/>
<path d="M60.0244 59.4441C59.7068 59.2307 59.9775 58.7629 60.1595 54.7119C60.2097 53.5939 60.4441 52.5791 61.0269 52.1766C61.2676 51.99 61.5702 51.9015 61.8736 51.9291C62.0384 51.9469 62.1928 52.0185 62.3127 52.1329C62.3993 52.2353 62.4607 52.3567 62.4918 52.4871C62.523 52.6176 62.5231 52.7535 62.4921 52.884C62.3515 52.8055 62.1889 52.7753 62.0295 52.798C61.8502 52.841 61.6886 52.9383 61.5668 53.0767C60.9992 53.693 61.0656 56.2494 61.0656 56.2494C61.1201 58.3745 61.2288 59.1187 60.815 59.4223C60.7 59.5034 60.5636 59.5488 60.423 59.5527C60.2824 59.5566 60.1437 59.5188 60.0244 59.4441Z" fill="#F6F9E4"/>
<path d="M62.9273 57.188C62.842 57.2125 62.7527 57.2192 62.6648 57.2079C62.5768 57.1965 62.4922 57.1673 62.4159 57.122C62.0547 56.8606 62.1691 55.9443 62.6304 55.4226C62.6947 55.3499 63.1032 54.9032 63.456 55.027C63.5171 55.0449 63.5723 55.0788 63.6158 55.1252C63.6594 55.1716 63.6896 55.2289 63.7035 55.2911C63.7247 55.5754 63.1247 55.9113 62.5816 55.9509C62.3516 55.9665 62.1209 55.9328 61.9051 55.8519C61.746 56.0742 61.7711 56.2097 61.7897 56.2647C61.9006 56.5941 62.6376 56.5664 62.7377 56.5618C62.8019 56.5587 64.0917 56.4794 64.3304 55.6048C64.3853 55.4194 64.3886 55.2227 64.3401 55.0356C64.2916 54.8485 64.1932 54.6781 64.0552 54.5427C63.6127 54.1667 62.9238 54.4285 62.8298 54.4663C61.6166 54.955 61.0503 57.042 61.6748 57.6671C62.0384 58.031 62.887 57.982 63.2916 57.5847C63.5668 57.3141 63.6356 56.8841 63.557 56.8363C63.4816 56.7902 63.3074 57.0897 62.9273 57.188Z" fill="#F6F9E4"/>
<path d="M65.5164 57.4022C65.4405 57.4239 65.3611 57.4299 65.2828 57.4198C65.2045 57.4097 65.1292 57.3838 65.0613 57.3435C64.7386 57.1092 64.8664 56.3027 65.2522 55.8318C65.3115 55.7592 65.5974 55.4101 65.8315 55.4878C65.8904 55.5118 65.9408 55.5529 65.9762 55.6058C66.0115 55.6588 66.0301 55.7211 66.0297 55.7847C66.0197 56.0587 65.5549 56.2637 65.2082 56.3007C65.0033 56.3209 64.7967 56.2907 64.6062 56.2126C64.4646 56.4102 64.487 56.5308 64.503 56.5795C64.589 56.8356 65.0945 56.8635 65.3458 56.8437C65.7964 56.8093 66.4579 56.5413 66.6389 55.9335C66.6616 55.8566 66.7981 55.3669 66.5173 55.0477C66.2158 54.7047 65.6162 54.7671 65.2694 54.9101C64.2632 55.3261 63.7828 57.0865 64.3784 57.6983C64.7197 58.0487 65.4739 58.0845 65.838 57.7534C66.0892 57.5251 66.1449 57.1313 66.074 57.0877C66.009 57.0482 65.8539 57.3146 65.5164 57.4022Z" fill="#F6F9E4"/>
<path d="M63.4304 52.7131C63.4214 52.9725 63.3189 53.22 63.1417 53.4097C61.958 54.548 57.8572 51.3581 56.7011 52.4898C56.4508 52.7348 56.2308 53.2872 56.376 53.4386C56.4425 53.5074 56.5574 53.4756 56.8748 53.4398C57.1544 53.4082 57.4374 53.4152 57.7176 53.3882C58.4028 53.3237 59.4484 53.7351 60.5361 53.9654C60.8098 54.0234 62.9713 54.4653 63.4887 53.8053C63.554 53.7221 63.8917 53.2914 63.7527 53.0132L63.4304 52.7131Z" fill="#F6F9E4"/>
<path d="M51.3952 53.1458C52.1286 53.5017 52.3742 53.7489 52.8553 53.6902C53.237 53.6438 53.7289 53.4095 53.8701 52.9725C53.9258 52.8005 53.9585 52.4967 53.7958 52.3292C53.5478 52.0736 52.953 52.2432 52.6164 52.4184L52.5832 52.4356C51.0942 53.2477 50.6207 56.4833 51.8243 57.4842C51.9966 57.6333 52.2002 57.7419 52.42 57.8018C52.6399 57.8618 52.8704 57.8717 53.0945 57.8308C53.1642 57.8136 53.7714 57.6533 53.9201 57.1048C53.9589 56.9645 53.9645 56.8172 53.9366 56.6744C53.9086 56.5316 53.8479 56.3972 53.7592 56.2819C53.5383 56.0175 53.2132 56.0141 53.221 55.9231C53.2289 55.8289 53.5873 55.7033 53.9036 55.7855C54.5147 55.9431 54.9922 56.8806 54.8357 57.6994C54.7178 58.195 54.4135 58.6262 53.986 58.9034C53.683 59.1167 53.3355 59.2586 52.9698 59.3186C52.6041 59.3786 52.2295 59.3551 51.8742 59.2498C50.7125 58.8961 50.2559 57.7258 50.1583 57.4761C49.3147 55.3146 50.9028 52.3572 52.8684 51.7346C53.0132 51.6888 54.0763 51.352 54.5266 51.8617C54.9098 52.2955 54.6941 53.1665 54.2666 53.6567C53.7934 54.1992 53.0913 54.2403 52.9136 54.2506C52.5937 54.2586 52.2751 54.2083 51.9733 54.1021C51.0961 53.8546 51.0386 53.5803 50.5543 53.5082C49.6236 53.3696 49.0457 54.265 48.7395 54.0361C48.4684 53.8335 48.5923 52.8851 49.1024 52.5843C49.6126 52.2834 50.4358 52.6806 51.3952 53.1458Z" fill="#F6F9E4"/>
<path d="M40.7129 91.8545C41.8086 92.2412 42.5176 92.7041 42.8398 93.2432C43.168 93.7822 43.332 94.3125 43.332 94.834C43.332 95.9531 42.6143 97.1045 41.1787 98.2881C39.7432 99.4658 38.2373 100.055 36.6611 100.055C35.7822 100.055 35.3428 99.7881 35.3428 99.2549C35.3428 98.376 35.9551 97.9365 37.1797 97.9365H37.6104C38.1846 97.9365 38.9082 97.6055 39.7812 96.9434C40.6543 96.2754 41.0908 95.5986 41.0908 94.9131C41.0908 94.4971 40.9121 94.1279 40.5547 93.8057C40.1973 93.4775 39.7197 93.3135 39.1221 93.3135C39.0752 93.3135 38.8438 93.4043 38.4277 93.5859C38.0059 93.7676 37.6953 93.8584 37.4961 93.8584C36.9453 93.8584 36.585 93.791 36.415 93.6562C36.251 93.5215 36.1689 93.249 36.1689 92.8389C36.1689 92.5518 36.7666 92.165 37.9619 91.6787C38.6416 91.4092 39.3213 90.9492 40.001 90.2988C40.6807 89.6426 41.0205 89.0889 41.0205 88.6377C41.0205 88.0576 40.5986 87.7676 39.7549 87.7676C38.9639 87.7676 38.1875 87.8555 37.4258 88.0312C36.6641 88.207 36.2422 88.4238 36.1602 88.6816C36.0781 88.9395 35.8613 90.2812 35.5098 92.707C35.1582 95.1328 34.9824 96.5332 34.9824 96.9082L34.8945 98.0947C34.8477 98.6924 34.71 99.0762 34.4814 99.2461C34.2529 99.4219 33.9922 99.5098 33.6992 99.5098C32.9141 99.5098 32.5215 99.0029 32.5215 97.9893C32.5215 97.8311 32.5713 97.5469 32.6709 97.1367C32.9287 96.0762 33.1777 94.5996 33.418 92.707C33.6641 90.8145 33.7871 89.7949 33.7871 89.6484C33.7871 89.3555 33.7285 89.209 33.6113 89.209L33.374 89.2266C33.1982 89.2441 33.043 89.1914 32.9082 89.0684C32.7734 88.9395 32.6855 88.8193 32.6445 88.708C32.6035 88.5967 32.583 88.4941 32.583 88.4004C32.583 87.8203 33.3975 87.2695 35.0264 86.748C36.6553 86.2266 38.3662 85.9658 40.1592 85.9658C41.1143 85.9658 41.8877 86.2207 42.4795 86.7305C43.0771 87.2344 43.376 87.8203 43.376 88.4883C43.376 88.9688 43.1855 89.458 42.8047 89.9561C42.4238 90.4482 41.7266 91.0811 40.7129 91.8545ZM47.4277 94.6406L47.5771 94.3594C48.2861 92.9355 49.0479 91.7812 49.8623 90.8965C50.6826 90.0059 51.4824 89.5605 52.2617 89.5605C52.8594 89.5605 53.3457 89.7246 53.7207 90.0527C54.1016 90.3809 54.292 90.7705 54.292 91.2217C54.292 91.5029 54.2275 91.7461 54.0986 91.9512C53.9697 92.1504 53.791 92.25 53.5625 92.25C53.1992 92.25 52.8682 92.1006 52.5693 91.8018C52.3584 91.6084 52.1914 91.5117 52.0684 91.5117C51.6289 91.5117 50.8936 92.1943 49.8623 93.5596C48.8311 94.9248 48.21 96.46 47.999 98.165C47.9346 98.6572 47.791 99 47.5684 99.1934C47.3457 99.3926 47.0439 99.4922 46.6631 99.4922C46.2588 99.4922 45.9717 99.2637 45.8018 98.8066C45.6318 98.3438 45.5469 97.5908 45.5469 96.5479C45.5469 96.1201 45.5586 95.543 45.582 94.8164C45.6055 94.1309 45.6729 93.293 45.7842 92.3027C45.8135 92.0449 45.834 91.8428 45.8457 91.6963C45.8984 91.1221 45.957 90.7295 46.0215 90.5186C46.0918 90.3018 46.25 90.0996 46.4961 89.9121C46.7422 89.7246 47.0146 89.6309 47.3135 89.6309C47.6299 89.6309 47.8701 89.7217 48.0342 89.9033C48.1982 90.085 48.2803 90.2842 48.2803 90.501C48.2803 90.7764 48.1484 91.3477 47.8848 92.2148C47.791 92.5137 47.7119 92.8711 47.6475 93.2871L47.4277 94.6406ZM62.3252 95.9766C62.3252 96.5859 61.8125 97.3154 60.7871 98.165C59.7617 99.0088 58.6045 99.4307 57.3154 99.4307C56.3252 99.4307 55.5459 99.1201 54.9775 98.499C54.4092 97.8721 54.125 97.002 54.125 95.8887C54.125 94.248 54.7051 92.71 55.8652 91.2744C57.0254 89.8389 58.2646 89.1211 59.583 89.1211C60.2393 89.1211 60.7666 89.3291 61.165 89.7451C61.5635 90.1611 61.7627 90.6562 61.7627 91.2305C61.7627 92.25 61.2734 93.2227 60.2949 94.1484C59.3164 95.0684 58.0625 95.7041 56.5332 96.0557C56.3574 96.0967 56.2695 96.2021 56.2695 96.3721C56.2695 96.6533 56.3926 96.9229 56.6387 97.1807C56.8906 97.4326 57.2246 97.5586 57.6406 97.5586C58.8184 97.5586 59.9873 96.9521 61.1475 95.7393C61.3701 95.5049 61.5869 95.3877 61.7979 95.3877C62.1494 95.3877 62.3252 95.584 62.3252 95.9766ZM56.4277 94.4209C57.3535 94.2334 58.168 93.8379 58.8711 93.2344C59.5801 92.6309 59.9346 92.083 59.9346 91.5908C59.9346 91.3975 59.8789 91.2363 59.7676 91.1074C59.6621 90.9727 59.5244 90.9053 59.3545 90.9053C58.8447 90.9053 58.2793 91.2803 57.6582 92.0303C57.0371 92.7803 56.627 93.5771 56.4277 94.4209ZM69.8135 96.0557C68.2725 98.0889 66.7842 99.1055 65.3486 99.1055C64.8213 99.1055 64.3672 98.8975 63.9863 98.4814C63.6055 98.0654 63.415 97.5352 63.415 96.8906C63.415 95.3379 64.1064 93.6855 65.4893 91.9336C66.8721 90.1758 68.2666 89.2969 69.6729 89.2969C70.3877 89.2969 70.8564 89.6572 71.0791 90.3779C71.7529 90.3779 72.0898 90.6357 72.0898 91.1514C72.0898 91.3975 72.0254 91.8428 71.8965 92.4873C71.6621 93.6943 71.5449 94.6582 71.5449 95.3789C71.5449 96.1289 71.5947 96.6562 71.6943 96.9609C71.7998 97.2656 71.876 97.4648 71.9229 97.5586C71.9697 97.6523 72.1104 97.752 72.3447 97.8574C72.5791 97.9688 72.6963 98.124 72.6963 98.3232C72.6963 98.6221 72.5439 98.8711 72.2393 99.0703C71.9404 99.2695 71.627 99.3691 71.2988 99.3691C70.1973 99.3691 69.7021 98.2646 69.8135 96.0557ZM69.2861 91.1777C68.6943 91.1777 67.9238 91.834 66.9746 93.1465C66.0312 94.4531 65.5596 95.5635 65.5596 96.4775C65.5596 96.958 65.6592 97.1982 65.8584 97.1982C66.5498 97.1982 67.3994 96.5859 68.4072 95.3613C69.4209 94.1309 69.9277 93.0557 69.9277 92.1357C69.9277 91.8428 69.8604 91.6113 69.7256 91.4414C69.5967 91.2656 69.4502 91.1777 69.2861 91.1777ZM82.4785 91.6611H82.4873C82.4873 91.6611 82.4814 91.667 82.4697 91.6787C82.1299 91.8662 81.8545 92.0303 81.6436 92.1709C81.251 92.4346 80.8555 92.7188 80.457 93.0234C80 93.375 79.6572 93.6709 79.4287 93.9111C79.2354 94.1104 79.1387 94.2568 79.1387 94.3506C79.1387 94.4561 79.4814 94.8691 80.167 95.5898C80.8525 96.3047 81.3945 96.8174 81.793 97.1279C82.1973 97.4385 82.5957 97.5938 82.9883 97.5938L83.375 97.585C83.5156 97.585 83.627 97.6289 83.709 97.7168C83.7969 97.7988 83.8408 97.9248 83.8408 98.0947C83.8408 98.335 83.6914 98.6133 83.3926 98.9297C83.0938 99.2461 82.5811 99.4043 81.8545 99.4043C81.4268 99.4043 80.9932 99.249 80.5537 98.9385C80.1143 98.6221 79.4404 97.9131 78.5322 96.8115C77.8057 95.9268 77.4102 95.4844 77.3457 95.4844C77.3047 95.4844 77.1816 95.5898 76.9766 95.8008C76.7715 96.0117 76.6367 96.1729 76.5723 96.2842V96.293C76.4727 96.7793 76.4229 97.415 76.4229 98.2002C76.4229 98.5928 76.3057 98.9121 76.0713 99.1582C75.8428 99.4043 75.5615 99.5273 75.2275 99.5273C74.8818 99.5273 74.6123 99.4277 74.4189 99.2285C74.2256 99.0352 74.1289 98.8389 74.1289 98.6396C74.1289 98.4287 74.2021 97.9658 74.3486 97.251C74.6299 95.8623 74.8672 94.0195 75.0605 91.7227C75.248 89.8887 75.4121 88.459 75.5527 87.4336C75.6934 86.4023 75.8193 85.7285 75.9307 85.4121C76.042 85.0898 76.2148 84.835 76.4492 84.6475C76.6836 84.4541 76.9355 84.3574 77.2051 84.3574C77.4629 84.3574 77.668 84.4658 77.8203 84.6826C77.9785 84.8936 78.0576 85.1514 78.0576 85.4561C78.0576 85.8369 77.8115 87.3252 77.3193 89.9209L77.1084 91.0723H77.1172C76.8594 92.7656 76.7275 93.7441 76.7217 94.0078L79.4199 91.5645C80.7969 90.2344 81.8076 89.5693 82.4521 89.5693C83.0732 89.5693 83.3838 89.8184 83.3838 90.3164C83.3838 90.9375 83.082 91.3857 82.4785 91.6611Z" fill="#626365"/>
</svg>
