<svg width="16" height="16" viewBox="0 0 16 16" fill="none" xmlns="http://www.w3.org/2000/svg">
<path d="M2.68666 10.5053L2.01999 13.172C1.99158 13.2837 1.9927 13.4008 2.02324 13.512C2.05377 13.6231 2.11267 13.7244 2.19416 13.8058C2.27564 13.8873 2.37692 13.9462 2.48804 13.9768C2.59916 14.0073 2.71631 14.0084 2.82799 13.98L5.49466 13.3133C5.61199 13.284 5.71933 13.2233 5.80466 13.138L11.3327 7.61001L12.1953 8.47134L13.138 7.52868L12.2753 6.66734L14 4.94268C14.252 4.69068 14.3907 4.35601 14.3907 4.00001C14.3907 3.64401 14.252 3.30934 14 3.05734L12.9427 2.00001C12.4387 1.49601 11.5613 1.49601 11.0573 2.00001L9.33133 3.72601L8.46599 2.86201L7.52333 3.80468L8.38866 4.66868L2.86199 10.1953C2.77654 10.2809 2.71594 10.388 2.68666 10.5053ZM3.93533 11.008L9.33199 5.61134L10.3893 6.66734L4.99199 12.0647L3.58266 12.4173L3.93533 11.008Z" fill="#2F2F2F"/>
</svg>
