<svg width="67" height="13" viewBox="0 0 67 13" fill="none" xmlns="http://www.w3.org/2000/svg">
<path d="M5.99998 0.398438C9.09373 0.398438 11.5969 2.90156 11.5969 5.99063C11.5969 9.07969 9.09373 11.5875 5.99998 11.5875C2.90623 11.5875 0.403107 9.08438 0.403107 5.99531C0.403107 2.90625 2.90623 0.398438 5.99998 0.398438Z" fill="#E74D89"/>
<path d="M6 11.9859C2.69063 11.9859 0 9.3 0 5.99531C0 2.68594 2.69063 0 6 0C9.30937 0 12 2.68594 12 5.99063C12 9.29531 9.30937 11.9859 6 11.9859ZM11.0578 6.81094C10.8844 6.75469 9.47344 6.3375 7.86563 6.59063C8.53594 8.42813 8.80781 9.92812 8.85938 10.2375C10.0125 9.46406 10.8328 8.23594 11.0578 6.81094ZM8.00156 10.7109C7.92656 10.2609 7.62656 8.69531 6.90937 6.82969C6.9 6.83437 6.88594 6.83906 6.87656 6.83906C3.98437 7.84687 2.94844 9.84844 2.85469 10.0359C3.72188 10.7109 4.81406 11.1141 6 11.1141C6.70781 11.1188 7.3875 10.9734 8.00156 10.7109ZM2.19375 9.42188C2.31094 9.225 3.71719 6.9 6.36094 6.04219C6.42656 6.01875 6.49687 6 6.5625 5.98125C6.43594 5.69062 6.29531 5.4 6.14531 5.11406C3.58594 5.87812 1.10156 5.84531 0.876563 5.84062C0.876563 5.89219 0.871875 5.94375 0.871875 5.99531C0.876563 7.3125 1.37344 8.5125 2.19375 9.42188ZM0.984375 4.95C1.21406 4.95469 3.32344 4.96406 5.72344 4.32656C4.875 2.81719 3.95625 1.55156 3.825 1.36875C2.38594 2.04375 1.31719 3.36562 0.984375 4.95ZM4.8 1.02187C4.94063 1.20937 5.87344 2.475 6.7125 4.01719C8.53594 3.33281 9.30469 2.30156 9.39844 2.17031C8.49375 1.36875 7.30312 0.88125 6 0.88125C5.5875 0.88125 5.18438 0.932812 4.8 1.02187ZM9.96563 2.76094C9.85781 2.90625 9 4.00781 7.10625 4.78125C7.22344 5.025 7.34062 5.27344 7.44844 5.52188C7.48594 5.61094 7.52344 5.7 7.56094 5.78438C9.26719 5.56875 10.9594 5.91563 11.1281 5.94844C11.1141 4.74375 10.6828 3.63281 9.96563 2.76094Z" fill="#B2215A"/>
<path d="M32.2768 4.915C32.849 4.915 33.3129 4.45094 33.3129 3.87858C33.3129 3.30611 32.849 2.84215 32.2768 2.84215C31.7045 2.84215 31.2406 3.30611 31.2406 3.87858C31.2406 4.45094 31.7045 4.915 32.2768 4.915ZM66.4721 8.45611C66.3145 8.34527 66.1928 8.32691 66.0918 8.54215C64.3516 12.3113 61.4189 10.4304 61.7103 10.596C62.3607 10.2984 64.0716 8.92633 63.813 7.0318C63.656 5.87399 62.6622 5.36041 61.6074 5.5443C59.7662 5.86529 59.0889 7.85123 59.4337 9.60944C59.494 9.91139 59.6019 10.1604 59.7096 10.4044C57.6289 12.0963 56.8026 8.88971 56.7089 8.50651C56.7052 8.486 58.3154 7.14381 58.7633 3.94547C59.2327 0.593419 58.1634 -0.0169322 57.0699 0.00211081C55.0465 0.0373647 54.4997 4.265 55.2343 7.78844C55.1728 7.80445 54.8864 7.96305 54.4264 7.98082C54.0953 6.93912 52.6808 6.02604 52.3105 6.37789C51.384 7.25807 52.5353 8.97887 53.3453 9.11383C52.8587 12.111 49.8154 11.3687 50.3819 7.61373C51.3729 5.7734 52.1267 3.03697 51.9922 1.38502C51.9445 0.800158 51.5121 0.0165639 50.5342 0.0554311C48.6532 0.129845 48.4487 4.35865 48.6692 7.36002C48.6583 7.2861 48.5536 7.72467 47.7828 7.94274C47.6005 6.93072 45.971 5.9149 45.5874 6.40328C44.8693 7.31734 46.1138 8.94713 46.7032 9.0608C46.2166 12.0579 43.1734 11.3156 43.7399 7.56061C44.731 5.72037 45.4846 2.98395 45.3501 1.33199C45.3024 0.747033 44.8701 -0.0365611 43.8921 0.00220846C42.0111 0.0767202 41.8066 4.30553 42.0271 7.3069C42.0161 7.2318 41.909 7.68483 41.1067 7.89928C41.0799 6.58629 39.4444 5.98424 39.0516 6.40318C38.3514 7.14996 39.2119 8.68219 40.008 9.0608C39.5214 12.0579 36.4782 11.3156 37.0447 7.56061C38.0357 5.72037 38.7895 2.98395 38.6549 1.33199C38.6073 0.747033 38.1749 -0.0365611 37.1969 0.00220846C35.316 0.0767202 35.1646 4.51813 35.3852 7.5194C34.7656 10.1738 32.688 13.4886 32.9579 6.8483C32.9846 6.38248 33.0137 6.20563 32.7814 6.03121C32.6074 5.89567 32.2117 5.9609 31.9954 5.96627C31.7325 5.97682 31.6666 6.13063 31.6085 6.36315C31.4731 6.96354 31.4488 7.54557 31.4295 8.33971C31.4168 8.71119 31.387 8.88453 31.2439 9.39108C31.1011 9.89752 30.2859 10.8232 29.8396 10.6684C29.2205 10.4555 29.4236 8.70768 29.5396 7.5068C29.6363 6.55777 29.3268 6.1316 28.5336 5.97662C28.0692 5.87985 27.7871 5.89469 27.3035 5.74225C26.8462 5.59811 26.7428 4.73307 25.7674 5.02135C25.2339 5.17916 25.5769 6.30953 25.4486 7.14733C24.8183 11.2685 23.5066 11.3817 22.8981 9.37975C25.6387 2.66774 23.6909 0.0216421 22.5508 0.0216421C21.3633 0.0216421 20.0059 0.839611 20.5807 6.0732C20.3012 5.99166 20.2152 5.94772 19.9093 5.94772C18.1789 5.94772 17 7.34654 17 9.07213C17 10.7977 18.179 12.1966 19.9094 12.1966C20.9309 12.1966 21.648 11.7321 22.1912 11.0134C22.5456 11.521 22.9771 12.2045 23.7663 12.1737C26.1186 12.0821 26.8026 7.25699 26.8834 6.98785C27.1349 7.02662 27.3728 7.09996 27.605 7.13873C27.9919 7.19684 28.02 7.34996 28.0112 7.73912C27.9087 11.0208 28.5143 12.1698 29.8879 12.1698C30.6532 12.1698 31.3354 11.4178 31.8053 10.8801C32.1562 11.6046 32.7155 12.1476 33.4658 12.1697C35.2839 12.2149 35.98 9.31715 35.9165 9.6985C35.8667 9.99772 36.5063 12.1534 38.378 12.1612C40.6965 12.171 41.1274 9.62135 41.1788 9.1943C41.1853 9.10934 41.1881 9.11813 41.1788 9.1943L41.1771 9.22018C41.9131 9.08326 42.2929 8.68863 42.2929 8.68863C42.2929 8.68863 42.8839 12.2008 45.0731 12.1613C47.3466 12.1201 47.7753 9.81539 47.8315 9.36598C47.839 9.25934 47.8434 9.27184 47.8315 9.36598C47.8312 9.37037 47.8309 9.37477 47.8307 9.37916C48.705 9.0611 48.935 8.74186 48.935 8.74186C48.935 8.74186 49.4047 12.1842 51.7152 12.2143C53.7742 12.2413 54.5373 10.1328 54.5418 9.25025C54.8891 9.25397 55.5314 9.0442 55.5164 9.03229C55.5164 9.03229 56.2706 12.0421 58.3768 12.1966C59.3656 12.2692 60.1074 11.6402 60.5303 11.3533C61.524 12.1581 64.8331 13.186 66.9226 9.64352C67.2175 9.13512 66.5834 8.53453 66.4721 8.45611ZM19.8259 11.0281C18.8163 11.0281 18.1689 10.0946 18.1689 9.08805C18.1689 8.0816 18.7632 7.14811 19.7728 7.14811C20.2271 7.14811 20.4798 7.19811 20.8336 7.50582C20.8978 7.75865 21.0796 8.34186 21.1681 8.6067C21.2866 8.96109 21.4276 9.26276 21.5698 9.59108C21.3667 10.4332 20.7008 11.0281 19.8259 11.0281ZM22.286 7.53541C22.244 7.46852 22.2528 7.50963 22.2059 7.44645C22.0208 6.94303 21.6642 5.8194 21.6229 4.54313C21.5762 3.09938 21.8168 1.40709 22.5262 1.40709C23.0068 1.40709 23.5177 4.83678 22.2859 7.53541H22.286ZM36.501 6.03111C36.3871 5.17438 36.3812 1.35504 37.298 1.46022C37.8043 1.66529 36.9771 5.2693 36.501 6.03111ZM43.1962 6.03111C43.0823 5.17438 43.0764 1.35504 43.9933 1.46022C44.4995 1.66529 43.6723 5.2693 43.1962 6.03111ZM49.8383 6.08434C49.7243 5.2275 49.7185 1.40817 50.6353 1.51334C51.1415 1.71842 50.3143 5.32252 49.8383 6.08434ZM57.1711 1.23668C58.0094 1.14977 57.9748 4.81051 56.2922 7.12164C56.0752 6.28629 55.7425 1.5235 57.1711 1.23658V1.23668ZM60.6945 9.11383C60.4253 7.75377 61.121 6.86051 61.8382 6.76256C62.0889 6.72252 62.4521 6.88492 62.5246 7.18854C62.6437 7.7607 62.5073 8.60944 60.9021 9.68629C60.9045 9.69547 60.7546 9.41676 60.6946 9.11383H60.6945Z" fill="#2F2F2F"/>
</svg>
