<svg width="50" height="50" viewBox="0 0 50 50" fill="none" xmlns="http://www.w3.org/2000/svg">
<path d="M0 5C0 2.23858 2.23858 0 5 0H45C47.7614 0 50 2.23858 50 5V45C50 47.7614 47.7614 50 45 50H5C2.23858 50 0 47.7614 0 45V5Z" fill="#FFCC4D"/>
<path d="M34.2609 30.5844C34.0843 30.4246 33.8204 30.4147 33.6309 30.5556C33.5923 30.5844 29.7401 33.4326 25 33.4326C20.2718 33.4326 16.4067 30.5844 16.369 30.5556C16.1796 30.4147 15.9157 30.4266 15.7391 30.5844C15.5635 30.7431 15.5238 31.005 15.6458 31.2074C15.7738 31.4207 18.8373 36.4088 25 36.4088C31.1627 36.4088 34.2272 31.4207 34.3542 31.2074C34.4762 31.004 34.4375 30.7431 34.2609 30.5844V30.5844Z" fill="#664500"/>
<path d="M25 33.5228C24.8532 33.5228 24.7113 33.5119 24.5655 33.5069V37.9871H25.4335V33.506C25.2897 33.5109 25.1468 33.5228 25 33.5228Z" fill="#65471B"/>
<path d="M28.9683 32.9366C28.9841 32.9326 27.5298 33.3116 26.5417 33.4188C26.1786 33.4604 25.8105 33.4942 25.4335 33.5071V37.9882H26.9841C28.0754 37.9882 28.9683 37.0953 28.9683 36.0041V32.9366ZM21.0318 32.9366C21.0159 32.9326 22.4703 33.3116 23.4583 33.4188C23.8214 33.4604 24.1895 33.4942 24.5665 33.5071V37.9882H23.0159C21.9246 37.9882 21.0318 37.0953 21.0318 36.0041V32.9366Z" fill="white"/>
<path d="M34.2609 30.5845C34.0843 30.4247 33.8204 30.4148 33.6309 30.5557C33.6012 30.5775 31.3899 32.2104 28.2629 33.0061C27.8234 33.1182 26.4137 33.4327 25.003 33.4337C23.5903 33.4337 22.1766 33.1182 21.7371 33.0061C18.6101 32.2104 16.3988 30.5775 16.369 30.5557C16.1806 30.4148 15.9157 30.4247 15.7391 30.5845C15.5625 30.7432 15.5238 31.0041 15.6458 31.2075C15.7421 31.3682 17.5159 34.2501 21.0317 35.6529V33.8384C21.0159 33.8345 22.4702 34.2134 23.4583 34.3206C23.8214 34.3622 24.1895 34.396 24.5665 34.4089C24.7113 34.4138 24.8532 34.4247 25 34.4247C25.1468 34.4247 25.2887 34.4138 25.4345 34.4089C25.8115 34.396 26.1796 34.3632 26.5427 34.3206C27.5308 34.2134 28.9851 33.8345 28.9692 33.8384V35.6529C32.4851 34.2501 34.2589 31.3682 34.3552 31.2075C34.4762 31.0041 34.4375 30.7432 34.2609 30.5845V30.5845ZM33.5556 21.0557C33.5556 22.7561 32.625 24.135 31.4762 24.135C30.3284 24.135 29.3968 22.7561 29.3968 21.0557C29.3968 19.3553 30.3274 17.9763 31.4762 17.9763C32.625 17.9763 33.5556 19.3553 33.5556 21.0557ZM16.5248 21.0557C16.5248 22.7561 17.4554 24.135 18.6042 24.135C19.752 24.135 20.6835 22.7561 20.6835 21.0557C20.6835 19.3553 19.753 17.9763 18.6042 17.9763C17.4554 17.9763 16.5248 19.3553 16.5248 21.0557Z" fill="#65471B"/>
<path d="M41.6746 16.6935C41.505 16.5288 40.4177 16.9653 39.3175 16.4048C37.0476 15.2481 31.3115 14.132 27.5774 16.7778C27.1776 17.0606 25.507 17.1082 25.0397 17.0884C24.5724 17.1092 22.9018 17.0616 22.502 16.7778C18.7689 14.132 13.0327 15.2481 10.7629 16.4048C9.66271 16.9653 8.57541 16.5288 8.40576 16.6935C8.16072 16.9306 8.16072 17.88 8.40675 18.1181C8.6508 18.3552 9.87203 18.629 10.1151 19.3403C10.3601 20.0526 10.3621 24.259 12.3105 25.7134C14.1349 27.0745 18.3909 27.4842 21.0883 25.9495C23.4415 24.6112 23.3591 21.7937 23.7907 20.1151C23.9445 19.5169 24.378 19.2153 25.0407 19.2153C25.7034 19.2153 26.1369 19.5169 26.2907 20.1151C26.7222 21.7927 26.6389 24.6112 28.9931 25.9495C31.6905 27.4832 35.9464 27.0735 37.7698 25.7134C39.7193 24.26 39.7212 20.0526 39.9653 19.3403C40.2083 18.629 41.4296 18.3542 41.6736 18.1181C41.9196 17.88 41.9206 16.9306 41.6746 16.6935V16.6935ZM21.6409 20.3145C21.5645 21.4108 21.3691 23.5159 20.0566 24.263C19.252 24.7213 18.2034 25.0001 17.1062 25.0001H17.1052C15.8899 25.0001 14.2054 24.6558 13.5466 24.1647C12.7232 23.5507 12.4097 21.0229 12.2917 20.0774C12.2163 19.4753 12.0139 18.004 12.6766 17.7778C13.7282 17.4197 15.1954 17.1399 16.6964 17.1399C17.3839 17.1399 19.6935 17.1826 20.8185 17.8751C21.8155 18.4872 21.6835 19.7114 21.6409 20.3145V20.3145ZM37.7897 20.0636C37.6716 21.01 37.3581 23.5507 36.5347 24.1647C35.876 24.6558 34.1915 25.0001 32.9762 25.0001H32.9752C31.877 25.0001 30.8294 24.7213 30.0238 24.263C28.7113 23.5169 28.5159 21.4247 28.4395 20.3284C28.3978 19.7253 28.2649 18.4921 29.2619 17.88C30.3879 17.1876 32.6964 17.1399 33.3839 17.1399C34.8849 17.1399 36.3512 17.4147 37.4038 17.7729C38.0665 17.9991 37.8651 19.4614 37.7897 20.0636V20.0636Z" fill="#292F33"/>
<path d="M43 26.5C43 27.3284 42.3284 28 41.5 28C40.6716 28 40 27.3284 40 26.5C40 25.6716 40.6716 25 41.5 25C42.3284 25 43 25.6716 43 26.5Z" fill="#E0A30A"/>
<path d="M7 26.5C7 27.3284 7.67157 28 8.5 28C9.32843 28 10 27.3284 10 26.5C10 25.6716 9.32843 25 8.5 25C7.67157 25 7 25.6716 7 26.5Z" fill="#E0A30A"/>
<path d="M47 30.5C47 31.3284 46.3284 32 45.5 32C44.6716 32 44 31.3284 44 30.5C44 29.6716 44.6716 29 45.5 29C46.3284 29 47 29.6716 47 30.5Z" fill="#E0A30A"/>
<path d="M4 30.5C4 31.3284 4.67157 32 5.5 32C6.32843 32 7 31.3284 7 30.5C7 29.6716 6.32843 29 5.5 29C4.67157 29 4 29.6716 4 30.5Z" fill="#E0A30A"/>
<path d="M43 34.5C43 35.3284 42.3284 36 41.5 36C40.6716 36 40 35.3284 40 34.5C40 33.6716 40.6716 33 41.5 33C42.3284 33 43 33.6716 43 34.5Z" fill="#E0A30A"/>
<path d="M7 34.5C7 35.3284 7.67157 36 8.5 36C9.32843 36 10 35.3284 10 34.5C10 33.6716 9.32843 33 8.5 33C7.67157 33 7 33.6716 7 34.5Z" fill="#E0A30A"/>
</svg>
