<svg width="22" height="22" viewBox="0 0 22 22" fill="none" xmlns="http://www.w3.org/2000/svg">
<path d="M11 1.375C5.68477 1.375 1.375 5.68477 1.375 11C1.375 16.3152 5.68477 20.625 11 20.625C16.3152 20.625 20.625 16.3152 20.625 11C20.625 5.68477 16.3152 1.375 11 1.375ZM11.6875 15.6406C11.6875 15.7352 11.6102 15.8125 11.5156 15.8125H10.4844C10.3898 15.8125 10.3125 15.7352 10.3125 15.6406V9.79688C10.3125 9.70234 10.3898 9.625 10.4844 9.625H11.5156C11.6102 9.625 11.6875 9.70234 11.6875 9.79688V15.6406ZM11 8.25C10.7301 8.24449 10.4732 8.13342 10.2843 7.94062C10.0954 7.74783 9.98959 7.48867 9.98959 7.21875C9.98959 6.94883 10.0954 6.68967 10.2843 6.49688C10.4732 6.30408 10.7301 6.19301 11 6.1875C11.2699 6.19301 11.5268 6.30408 11.7157 6.49688C11.9046 6.68967 12.0104 6.94883 12.0104 7.21875C12.0104 7.48867 11.9046 7.74783 11.7157 7.94062C11.5268 8.13342 11.2699 8.24449 11 8.25Z" fill="#B2B4B5"/>
</svg>
