<svg width="20" height="20" viewBox="0 0 20 20" fill="none" xmlns="http://www.w3.org/2000/svg">
<path d="M10 0C4.47768 0 0 4.47768 0 10C0 15.5223 4.47768 20 10 20C15.5223 20 20 15.5223 20 10C20 4.47768 15.5223 0 10 0Z" fill="#F3F2F8"/>
<path d="M10.7143 14.8214C10.7143 14.9196 10.6339 15 10.5357 15H9.46426C9.36605 15 9.28569 14.9196 9.28569 14.8214V8.75C9.28569 8.65179 9.36605 8.57143 9.46426 8.57143H10.5357C10.6339 8.57143 10.7143 8.65179 10.7143 8.75V14.8214Z" fill="#2F2F2F"/>
<path d="M9.99998 7.14286C9.7196 7.13713 9.45264 7.02174 9.25638 6.82143C9.06012 6.62112 8.9502 6.35186 8.9502 6.07143C8.9502 5.791 9.06012 5.52174 9.25638 5.32143C9.45264 5.12112 9.7196 5.00572 9.99998 5C10.2803 5.00572 10.5473 5.12112 10.7436 5.32143C10.9398 5.52174 11.0498 5.791 11.0498 6.07143C11.0498 6.35186 10.9398 6.62112 10.7436 6.82143C10.5473 7.02174 10.2803 7.13713 9.99998 7.14286Z" fill="#2F2F2F"/>
</svg>
