<svg width="22" height="22" viewBox="0 0 22 22" fill="none" xmlns="http://www.w3.org/2000/svg">
<path d="M17.4167 13.75V3.66667C17.416 3.52898 17.3844 3.3932 17.3241 3.26942C17.2638 3.14564 17.1764 3.03703 17.0683 2.95167C16.9618 2.86552 16.8374 2.80433 16.7041 2.77261C16.5709 2.74088 16.4322 2.73942 16.2983 2.76833L8.04833 4.60167C7.84466 4.6476 7.66278 4.76167 7.53276 4.92503C7.40275 5.08838 7.33239 5.29122 7.33333 5.5V13.145C6.70755 12.8496 6.00285 12.765 5.32494 12.904C4.64704 13.043 4.03249 13.3981 3.57347 13.916C3.11446 14.4338 2.83574 15.0866 2.77913 15.7763C2.72252 16.466 2.89106 17.1554 3.25948 17.7412C3.6279 18.327 4.17632 18.7775 4.82249 19.0252C5.46865 19.2729 6.1777 19.3044 6.84328 19.115C7.50886 18.9255 8.09508 18.5254 8.51398 17.9746C8.93289 17.4238 9.1619 16.752 9.16666 16.06C9.17615 15.9013 9.17615 15.7421 9.16666 15.5833V6.23333L15.5833 4.8125V11.3117C14.9572 11.0161 14.2521 10.9316 13.5738 11.0709C12.8956 11.2102 12.2808 11.5658 11.8219 12.0843C11.363 12.6028 11.0847 13.2561 11.0288 13.9463C10.9729 14.6364 11.1424 15.3261 11.5119 15.9117C11.8813 16.4973 12.4308 16.9472 13.0778 17.1939C13.7247 17.4406 14.4343 17.4707 15.0998 17.2797C15.7654 17.0888 16.351 16.687 16.7688 16.1349C17.1865 15.5827 17.4139 14.9099 17.4167 14.2175C17.4254 14.0618 17.4254 13.9057 17.4167 13.75Z" fill="#B2B4B5"/>
</svg>
