<svg width="50" height="50" viewBox="0 0 50 50" fill="none" xmlns="http://www.w3.org/2000/svg">
<rect width="50" height="50" rx="5" fill="url(#paint0_linear)"/>
<path d="M8.55439 30.5397C8.54235 30.6208 8.48442 30.6787 8.40911 30.6787C8.33379 30.6787 8.27586 30.6208 8.26427 30.5379L8 28.5601L8.26427 26.5494C8.27541 26.4656 8.33335 26.4076 8.40911 26.4076C8.48397 26.4076 8.54191 26.4656 8.55439 26.5494L8.86901 28.5624L8.55439 30.5397ZM9.90069 31.7412C9.88821 31.8272 9.82582 31.8873 9.74872 31.8873C9.67386 31.8873 9.60835 31.8272 9.5981 31.7412L9.24247 28.5597L9.5981 25.3069C9.60879 25.2231 9.67386 25.1607 9.74872 25.1607C9.82582 25.1607 9.88821 25.2218 9.90069 25.3069L10.3053 28.5597L9.90069 31.7412ZM11.3535 32.28C11.3433 32.3833 11.2657 32.4569 11.1726 32.4569C11.0763 32.4569 11.0001 32.3833 10.9907 32.28L10.6534 28.5624L10.9907 24.7035C10.9992 24.5988 11.0763 24.5239 11.1726 24.5239C11.2657 24.5239 11.3428 24.5988 11.3535 24.7035L11.7363 28.5624L11.3535 32.28ZM12.8206 32.3981C12.8099 32.5166 12.7172 32.6062 12.6071 32.6062C12.4944 32.6062 12.4021 32.5166 12.3928 32.3981L12.0741 28.5624L12.3928 24.5974C12.4021 24.478 12.4944 24.3884 12.6071 24.3884C12.7172 24.3884 12.8099 24.478 12.8206 24.5974L13.182 28.5624L12.8206 32.3981ZM14.2957 32.4288C14.2881 32.5665 14.1807 32.6686 14.0537 32.6686C13.9227 32.6686 13.8188 32.5665 13.8099 32.4288L13.5087 28.5619L13.8099 24.8835C13.8193 24.7467 13.9227 24.6447 14.0537 24.6447C14.1829 24.6447 14.2881 24.7467 14.2957 24.8817L14.637 28.5619L14.2957 32.4288ZM15.785 32.431V32.4288C15.7761 32.5812 15.6554 32.7015 15.5101 32.7015C15.3643 32.7015 15.2436 32.5808 15.2351 32.431L14.9539 28.5641L15.2351 22.5795C15.2436 22.4271 15.3643 22.3068 15.5101 22.3068C15.6558 22.3068 15.7766 22.4276 15.785 22.5773L16.1037 28.5641L15.785 32.431ZM17.2633 32.4288V32.4266C17.2543 32.595 17.1211 32.7292 16.9562 32.7292C16.7944 32.7292 16.6607 32.595 16.6527 32.4266L16.3871 28.5846L16.6527 21.231C16.6607 21.0625 16.7944 20.9293 16.9562 20.9293C17.1211 20.9293 17.2543 21.0625 17.2633 21.231L17.5623 28.5846L17.2633 32.4288ZM18.7967 32.3695V32.3673C18.79 32.5549 18.6425 32.7006 18.4612 32.7006C18.2798 32.7006 18.1323 32.5549 18.1256 32.3695L17.8791 28.5668C17.8791 28.5668 18.1256 20.6004 18.1256 20.5982C18.1327 20.4128 18.2798 20.2644 18.4612 20.2644C18.6425 20.2644 18.7905 20.4128 18.7967 20.5982L19.0753 28.5668L18.7967 32.3695ZM20.3213 32.3441C20.3142 32.5482 20.1542 32.7082 19.955 32.7082C19.7553 32.7082 19.5953 32.5482 19.5882 32.3459L19.3582 28.5659L19.5882 20.3312C19.5953 20.1262 19.7553 19.9667 19.955 19.9667C20.1542 19.9667 20.3146 20.1262 20.3213 20.3312L20.5766 28.5659L20.3213 32.3441ZM21.8557 32.3107V32.3085C21.8485 32.5291 21.6761 32.7042 21.4573 32.7042C21.2416 32.7042 21.0655 32.5291 21.0615 32.3107L20.8503 28.5668L21.0593 20.5425C21.0655 20.3187 21.2411 20.1458 21.4573 20.1458C21.6761 20.1458 21.8485 20.3187 21.8557 20.5425L22.0927 28.5668L21.8557 32.3107ZM23.4025 32.2884V32.2853C23.3989 32.5255 23.2091 32.7105 22.9747 32.7105C22.7385 32.7105 22.5513 32.5255 22.5442 32.2884L22.3535 28.5664L22.5446 20.8357C22.5518 20.5959 22.7389 20.4083 22.9751 20.4083C23.2095 20.4083 23.3994 20.5959 23.403 20.8357L23.6191 28.5686L23.4025 32.2884ZM24.9806 31.8958L24.9614 32.2603C24.9592 32.3874 24.9057 32.5023 24.8241 32.5852C24.7403 32.6668 24.6254 32.7189 24.5037 32.7189C24.362 32.7189 24.2372 32.6539 24.1516 32.5514C24.0884 32.4769 24.0491 32.3807 24.0447 32.2795C24.0434 32.2751 24.0434 32.2693 24.0434 32.263C24.0434 32.263 23.8673 28.5704 23.8673 28.5641L24.0411 19.4537L24.0434 19.3664C24.0447 19.2069 24.1294 19.0647 24.2559 18.9831C24.3268 18.9359 24.4106 18.9083 24.5042 18.9083C24.596 18.9083 24.6829 18.9368 24.7555 18.9871C24.8789 19.0696 24.9596 19.2082 24.9618 19.3668L25.1552 28.5686L24.9806 31.8958ZM26.514 32.2127V32.2082C26.5109 32.4774 26.2903 32.6966 26.0238 32.6966C25.7564 32.6966 25.5363 32.4774 25.5336 32.2104L25.4324 30.4145L25.3331 28.5704L25.5336 18.5852V18.5348C25.534 18.3833 25.6053 18.2478 25.7154 18.1565C25.7997 18.0874 25.9079 18.0455 26.0238 18.0455C26.1161 18.0455 26.2016 18.0709 26.2747 18.1137C26.4142 18.201 26.5118 18.3557 26.5163 18.5326L26.7333 28.5699L26.514 32.2127ZM39.7645 32.7064C39.7645 32.7064 27.4276 32.7064 27.4147 32.7064C27.1482 32.6793 26.9374 32.4671 26.9329 32.1939V18.0562C26.9374 17.7959 27.027 17.6618 27.3621 17.533C28.2271 17.1979 29.2066 17 30.2134 17C34.32 17 37.6851 20.1503 38.0421 24.1634C38.5706 23.9428 39.1544 23.8171 39.7645 23.8171C42.2236 23.8171 44.2174 25.8118 44.2174 28.2727C44.2174 30.7331 42.2236 32.7064 39.7645 32.7064Z" fill="#F1F2F2"/>
<defs>
<linearGradient id="paint0_linear" x1="25" y1="0" x2="25" y2="50" gradientUnits="userSpaceOnUse">
<stop stop-color="#FF7700"/>
<stop offset="1" stop-color="#FF3300"/>
</linearGradient>
</defs>
</svg>
