<svg width="16" height="31" viewBox="0 0 16 31" fill="none" xmlns="http://www.w3.org/2000/svg">
<path d="M9.80594 30.3202C9.71515 30.3479 9.61846 30.3501 9.52652 30.3265C9.43457 30.3028 9.35093 30.2543 9.2848 30.1862C9.21867 30.118 9.17262 30.033 9.15171 29.9404C9.1308 29.8478 9.13585 29.7512 9.16629 29.6613C9.68553 28.1265 9.72347 26.7828 9.27885 25.6682C8.86741 24.6363 8.18208 24.1075 7.38886 23.4958C6.55719 22.8538 5.61444 22.1261 4.97275 20.7202C4.02176 18.6372 4.40073 16.5474 4.52549 15.8612C4.79093 14.3994 5.35474 13.4519 5.90012 12.5359C6.34775 11.8395 6.7137 11.0939 6.99075 10.3139C7.01216 10.2496 7.04602 10.1901 7.09041 10.1389C7.13479 10.0877 7.18884 10.0457 7.24944 10.0154C7.31004 9.9851 7.37602 9.96702 7.44361 9.9622C7.5112 9.95737 7.57908 9.96591 7.64337 9.98732C7.70766 10.0087 7.76711 10.0426 7.81832 10.087C7.86952 10.1314 7.91147 10.1854 7.94179 10.246C7.97211 10.3066 7.99021 10.3726 7.99503 10.4402C7.99985 10.5078 7.99131 10.5757 7.9699 10.6399C7.66965 11.4905 7.27269 12.3037 6.78683 13.0636C6.26552 13.9397 5.77295 14.767 5.5408 16.0455C5.43058 16.6532 5.09464 18.5023 5.91151 20.2916C6.44712 21.4652 7.21084 22.0547 8.01937 22.6788C8.85623 23.3248 9.72155 23.9927 10.2376 25.2866C10.7759 26.6359 10.7444 28.2194 10.1441 29.9935C10.1176 30.0709 10.0732 30.1408 10.0144 30.1976C9.95558 30.2544 9.88414 30.2964 9.80594 30.3202Z" fill="#474747"/>
<path d="M10.5244 21.0229C10.4392 21.0492 10.3488 21.053 10.2617 21.0339C10.1747 21.0148 10.0941 20.9735 10.0278 20.914C8.95846 19.9553 8.27464 18.8691 7.99536 17.6853C7.53732 15.7438 8.31229 14.2151 9.13253 12.5965C9.66596 11.5443 10.2172 10.4563 10.4798 9.16284C10.9696 6.74956 10.3257 4.0193 8.56633 1.04857C8.49943 0.930971 8.4814 0.791802 8.51612 0.661038C8.55083 0.530274 8.63552 0.418376 8.75194 0.349442C8.86835 0.280509 9.00718 0.260055 9.13853 0.292486C9.26988 0.324917 9.38323 0.407639 9.45419 0.522835C11.348 3.71966 12.0333 6.69627 11.4911 9.36805C11.2008 10.7983 10.5908 12.0017 10.0531 13.063C9.28877 14.5712 8.62845 15.8739 8.99988 17.4485C9.22988 18.4227 9.80755 19.3303 10.7169 20.1456C10.7849 20.2066 10.8355 20.2845 10.8636 20.3715C10.8916 20.4584 10.896 20.5512 10.8765 20.6404C10.8569 20.7296 10.814 20.812 10.7521 20.8792C10.6903 20.9465 10.6117 20.996 10.5244 21.0229Z" fill="#474747"/>
<path d="M2.13984 19.0302C2.00902 19.0703 1.86759 19.0569 1.74668 18.9928C1.62576 18.9287 1.53525 18.8192 1.49506 18.6884C0.807135 16.4491 2.086 13.4662 2.14144 13.3404C2.1986 13.219 2.30077 13.1247 2.42631 13.0774C2.55184 13.03 2.69086 13.0335 2.8139 13.087C2.93694 13.1404 3.03432 13.2397 3.0854 13.3638C3.13647 13.4878 3.13722 13.6269 3.0875 13.7515C3.07559 13.7789 1.90617 16.5123 2.48141 18.3849C2.50139 18.4497 2.5084 18.5178 2.50204 18.5853C2.49569 18.6528 2.47608 18.7184 2.44436 18.7783C2.41264 18.8382 2.36942 18.8913 2.31716 18.9345C2.26491 18.9778 2.20466 19.0102 2.13984 19.0302Z" fill="#474747"/>
</svg>
