<svg width="16" height="16" viewBox="0 0 16 16" fill="none" xmlns="http://www.w3.org/2000/svg">
<path d="M0.399994 8C0.399994 7.11634 1.11634 6.4 1.99999 6.4C2.88365 6.4 3.59999 7.11634 3.59999 8C3.59999 8.88365 2.88365 9.6 1.99999 9.6C1.11634 9.6 0.399994 8.88365 0.399994 8Z" fill="#C4C4C4"/>
<path d="M6.39999 8C6.39999 7.11634 7.11634 6.4 7.99999 6.4C8.88365 6.4 9.59999 7.11634 9.59999 8C9.59999 8.88365 8.88365 9.6 7.99999 9.6C7.11634 9.6 6.39999 8.88365 6.39999 8Z" fill="#C4C4C4"/>
<path d="M12.4 8C12.4 7.11634 13.1163 6.4 14 6.4C14.8836 6.4 15.6 7.11634 15.6 8C15.6 8.88365 14.8836 9.6 14 9.6C13.1163 9.6 12.4 8.88365 12.4 8Z" fill="#C4C4C4"/>
</svg>
